<svg width="191" height="110" viewBox="0 0 191 110" fill="none" xmlns="http://www.w3.org/2000/svg">
<path d="M50 105C77.6132 105 100 82.6132 100 55C100 27.3868 77.6132 5 50 5C22.3868 5 0 27.3868 0 55C0 82.6132 22.3868 105 50 105Z" fill="#0098EA"/>
<path d="M67.0737 32.9053H32.929C26.65 32.9053 22.6711 39.6763 25.829 45.1526L46.9027 81.679C47.2169 82.2227 47.6686 82.6741 48.2125 82.988C48.7564 83.3019 49.3734 83.4671 50.0013 83.4671C50.6293 83.4671 51.2462 83.3019 51.7901 82.988C52.334 82.6741 52.7858 82.2227 53.1 81.679L74.179 45.1526C77.3316 39.6869 73.3527 32.9053 67.079 32.9053H67.0737ZM46.8842 70.7263L42.2948 61.8395L31.2211 42.0342C31.0524 41.7384 30.9648 41.4033 30.9672 41.0628C30.9696 40.7222 31.0618 40.3884 31.2345 40.0949C31.4073 39.8015 31.6545 39.5588 31.9511 39.3915C32.2477 39.2242 32.5832 39.1382 32.9237 39.1421H46.8816L46.8842 70.7263ZM68.7711 42.0316L57.7027 61.8474L53.1132 70.7263V39.1395H67.0684C68.6 39.1395 69.5027 40.7658 68.7711 42.0342" fill="white"/>
<path d="M188.5 55C188.5 26.0061 164.994 2.5 136 2.5C107.004 2.5 83.5 26.0008 83.5 55C83.5 83.9993 107.006 107.5 136 107.5C164.994 107.5 188.5 83.9939 188.5 55Z" fill="#53AE94" stroke="white" stroke-width="5"/>
<path d="M142.171 48.337V40.9001H159.179V29.5659H112.863V40.9001H129.874V48.3317C116.05 48.9659 105.655 51.7054 105.655 54.9843C105.655 58.2659 116.055 61.0028 129.874 61.6422V85.4686H142.174V61.6396C155.974 61.0028 166.347 58.2659 166.347 54.9896C166.347 51.7133 155.974 48.9764 142.174 48.3396M142.174 59.6212V59.6159C141.829 59.637 140.045 59.7475 136.074 59.7475C132.9 59.7475 130.668 59.6554 129.882 59.6159V59.6238C117.666 59.0817 108.55 56.9554 108.55 54.4133C108.55 51.8659 117.668 49.7422 129.882 49.2001V57.5054C130.682 57.558 132.968 57.6949 136.126 57.6949C139.918 57.6949 141.826 57.537 142.179 57.5054V49.2001C154.366 49.7422 163.463 51.8712 163.463 54.408C163.463 56.9449 154.363 59.0738 142.176 59.6185" fill="white"/>
</svg>
