<svg width="28" height="32" viewBox="0 0 28 32" fill="none" xmlns="http://www.w3.org/2000/svg">
<g clip-path="url(#clip0_49_343)">
<path fill-rule="evenodd" clip-rule="evenodd" d="M26.365 7.676L27.117 5.835C27.117 5.835 26.16 4.81 24.999 3.65C23.839 2.49 21.379 3.173 21.379 3.173L18.58 0H8.743L5.943 3.174C5.943 3.174 3.483 2.491 2.323 3.651C1.60574 4.368 0.899657 5.09608 0.205 5.835L0.957 7.676L0 10.406C0 10.406 2.813 21.046 3.142 22.346C3.792 24.903 4.235 25.892 6.08 27.189C7.923 28.485 11.27 30.736 11.816 31.079C12.363 31.419 13.046 32 13.661 32C14.276 32 14.959 31.419 15.505 31.078C16.052 30.737 19.398 28.485 21.243 27.189C23.087 25.893 23.531 24.903 24.18 22.345C24.51 21.045 27.321 10.405 27.321 10.405L26.365 7.676Z" fill="url(#paint0_linear_49_343)"/>
<path fill-rule="evenodd" clip-rule="evenodd" d="M17.144 5.766C17.554 5.766 20.594 5.186 20.594 5.186C20.594 5.186 24.196 9.536 24.196 10.466C24.196 11.234 23.886 11.534 23.521 11.889C23.4443 11.9623 23.3663 12.0407 23.287 12.124L20.587 14.988L20.498 15.078C20.228 15.348 19.832 15.748 20.111 16.41L20.169 16.545C20.476 17.262 20.855 18.148 20.373 19.045C19.859 20 18.98 20.637 18.416 20.531C17.853 20.426 16.53 19.735 16.043 19.421C15.557 19.104 14.013 17.834 14.013 17.347C14.013 16.942 15.123 16.267 15.663 15.939C15.77 15.874 15.854 15.823 15.903 15.79C15.958 15.753 16.052 15.695 16.166 15.624C16.658 15.318 17.546 14.767 17.569 14.523C17.596 14.221 17.586 14.133 17.189 13.389C17.105 13.23 17.006 13.061 16.904 12.886C16.527 12.236 16.104 11.51 16.198 10.99C16.303 10.402 17.225 10.065 18.006 9.78C18.104 9.74467 18.1987 9.70967 18.29 9.675L19.103 9.37C19.883 9.078 20.748 8.754 20.892 8.688C21.089 8.598 21.038 8.511 20.439 8.454L20.149 8.424C19.407 8.345 18.039 8.2 17.375 8.385C17.245 8.422 17.098 8.461 16.945 8.503C16.198 8.705 15.283 8.953 15.195 9.095L15.15 9.162C15.066 9.282 15.011 9.359 15.104 9.866L15.259 10.682C15.465 11.759 15.787 13.437 15.828 13.814C15.8333 13.8673 15.8393 13.9183 15.846 13.967C15.897 14.387 15.931 14.667 15.442 14.78L15.315 14.809C14.762 14.935 13.953 15.121 13.661 15.121C13.369 15.121 12.559 14.935 12.007 14.809L11.88 14.779C11.39 14.668 11.425 14.388 11.477 13.967L11.494 13.814C11.534 13.437 11.858 11.754 12.064 10.678C12.134 10.312 12.191 10.017 12.218 9.866C12.311 9.359 12.256 9.281 12.172 9.162L12.127 9.095C12.04 8.952 11.125 8.705 10.377 8.503C10.224 8.461 10.077 8.422 9.947 8.385C9.282 8.2 7.915 8.345 7.174 8.424L6.884 8.454C6.284 8.511 6.234 8.598 6.431 8.688C6.574 8.754 7.439 9.078 8.218 9.37L9.032 9.675C9.124 9.71033 9.219 9.74533 9.317 9.78C10.097 10.066 11.019 10.402 11.124 10.99C11.218 11.51 10.795 12.237 10.418 12.886C10.316 13.061 10.218 13.23 10.133 13.389C9.737 14.133 9.726 14.221 9.753 14.523C9.776 14.768 10.663 15.318 11.155 15.623C11.27 15.695 11.364 15.753 11.419 15.79C11.469 15.823 11.552 15.874 11.659 15.94C12.199 16.267 13.308 16.941 13.308 17.347C13.308 17.833 11.766 19.104 11.278 19.42C10.793 19.736 9.469 20.426 8.905 20.531C8.342 20.637 7.462 20 6.949 19.045C6.467 18.148 6.846 17.262 7.153 16.545L7.21 16.41C7.49 15.748 7.094 15.349 6.824 15.078L6.736 14.988L4.036 12.124C3.956 12.0413 3.87767 11.963 3.801 11.889C3.436 11.535 3.126 11.234 3.126 10.465C3.126 9.535 6.728 5.186 6.728 5.186C6.728 5.186 9.768 5.766 10.178 5.766C10.505 5.766 11.136 5.549 11.794 5.322C11.9613 5.264 12.1283 5.20733 12.295 5.152C13.115 4.879 13.661 4.877 13.661 4.877C13.661 4.877 14.207 4.879 15.027 5.152L15.528 5.322C16.186 5.549 16.818 5.766 17.144 5.766ZM16.623 21.151C17.265 21.481 17.721 21.716 17.893 21.823C18.116 21.963 17.981 22.226 17.777 22.37C17.574 22.512 14.845 24.624 14.58 24.857L14.472 24.953C14.217 25.183 13.892 25.476 13.661 25.476C13.431 25.476 13.105 25.182 12.849 24.953L12.742 24.857C12.477 24.624 9.748 22.512 9.545 22.369C9.342 22.226 9.205 21.963 9.428 21.823C9.601 21.716 10.058 21.481 10.701 21.15L11.311 20.834C12.274 20.337 13.474 19.914 13.661 19.914C13.848 19.914 15.048 20.337 16.011 20.834L16.623 21.151Z" fill="white"/>
<path fill-rule="evenodd" clip-rule="evenodd" d="M21.38 3.174L18.578 0H8.743L5.943 3.174C5.943 3.174 3.483 2.491 2.323 3.651C2.323 3.651 5.602 3.355 6.728 5.186C6.728 5.186 9.768 5.766 10.178 5.766C10.588 5.766 11.475 5.426 12.295 5.152C13.115 4.878 13.661 4.877 13.661 4.877C13.661 4.877 14.207 4.879 15.027 5.152C15.847 5.425 16.735 5.766 17.144 5.766C17.553 5.766 20.594 5.186 20.594 5.186C21.721 3.356 24.999 3.651 24.999 3.651C23.839 2.491 21.38 3.174 21.38 3.174Z" fill="url(#paint1_linear_49_343)"/>
</g>
<defs>
<linearGradient id="paint0_linear_49_343" x1="0.001" y1="32.226" x2="27.321" y2="32.226" gradientUnits="userSpaceOnUse">
<stop stop-color="#FF5500"/>
<stop offset="0.41" stop-color="#FF5500"/>
<stop offset="0.582" stop-color="#FF2000"/>
<stop offset="1" stop-color="#FF2000"/>
</linearGradient>
<linearGradient id="paint1_linear_49_343" x1="2.81" y1="5.745" x2="24.999" y2="5.745" gradientUnits="userSpaceOnUse">
<stop stop-color="#FF452A"/>
<stop offset="1" stop-color="#FF2000"/>
</linearGradient>
<clipPath id="clip0_49_343">
<rect width="28" height="32" fill="white"/>
</clipPath>
</defs>
</svg>
