<svg width="28" height="28" viewBox="0 0 28 28" fill="none" xmlns="http://www.w3.org/2000/svg">
<g clip-path="url(#clip0_49_350)">
<path d="M0 13.637C0 8.17 4.59 0 14.01 0C23.416 0 28 6.946 28 11.834C28 15.756 24.9 18.646 21.006 18.646C18.034 18.646 16.274 17.66 16.274 16.875C16.274 16.367 17.503 15.589 17.503 14.088C17.503 12.292 16.113 10.492 13.971 10.492C11.918 10.492 10.489 12.201 10.489 13.925C10.489 18.091 14.43 22.075 20.241 22.075C23.712 22.075 24.973 20.796 25.423 20.796C25.561 20.796 25.876 20.852 25.876 21.218C25.876 21.568 22.036 27.998 14.018 27.998C6.042 28 0 21.716 0 13.637Z" fill="#1DE9B6"/>
<path d="M0 13.637C0 8.17 5.33 5.209 8.911 5.209C18.318 5.209 21.005 6.947 21.005 11.834C21.005 15.757 17.503 15.59 17.503 14.089C17.503 12.293 16.113 10.493 13.971 10.493C11.918 10.493 10.489 12.203 10.489 13.927C10.489 18.093 14.43 22.077 20.241 22.077C23.712 22.077 24.973 20.797 25.423 20.797C25.561 20.797 25.876 20.854 25.876 21.22C25.876 21.57 22.036 28 14.018 28C6.042 28 0 21.716 0 13.637Z" fill="url(#paint0_radial_49_350)"/>
<path d="M10.49 13.926C10.49 12.317 11.732 10.723 13.566 10.516C10.693 10.76 7.407 13.579 7.407 18.798C7.407 24.372 12.212 28.223 17.167 27.638C23.037 26.288 25.876 21.519 25.876 21.22C25.876 20.854 25.56 20.798 25.423 20.798C24.973 20.798 23.713 22.078 20.241 22.078C14.431 22.078 10.49 18.093 10.49 13.926Z" fill="url(#paint1_radial_49_350)"/>
<path d="M0 13.637C0 8.17 4.59 0 14.01 0C23.416 0 28 6.946 28 11.834C28 15.756 24.9 18.646 21.006 18.646C18.034 18.646 16.274 17.66 16.274 16.875C16.274 16.367 17.503 15.589 17.503 14.088C17.503 12.292 16.05 6.613 8.663 6.613C6.61 6.613 0.88 7.52 0 13.637Z" fill="url(#paint2_radial_49_350)"/>
</g>
<defs>
<radialGradient id="paint0_radial_49_350" cx="0" cy="0" r="1" gradientUnits="userSpaceOnUse" gradientTransform="translate(9.795 20.196) scale(14.9436 16.562)">
<stop offset="0.652" stop-color="#0083DE"/>
<stop offset="0.822" stop-color="#006AAC"/>
<stop offset="0.944" stop-color="#005A8C"/>
</radialGradient>
<radialGradient id="paint1_radial_49_350" cx="0" cy="0" r="1" gradientUnits="userSpaceOnUse" gradientTransform="translate(16.857 17.717) scale(11.5346 11.5669)">
<stop offset="0.69" stop-color="#05509B"/>
<stop offset="0.717" stop-color="#054E98"/>
<stop offset="1" stop-color="#033E78"/>
</radialGradient>
<radialGradient id="paint2_radial_49_350" cx="0" cy="0" r="1" gradientUnits="userSpaceOnUse" gradientTransform="translate(30.554 8.44) rotate(180) scale(43.0724 64.9704)">
<stop stop-color="#5EEB69"/>
<stop offset="0.214" stop-color="#4BC958"/>
<stop offset="0.225" stop-color="#4AC862"/>
<stop offset="0.272" stop-color="#47C68B"/>
<stop offset="0.323" stop-color="#44C4AE"/>
<stop offset="0.376" stop-color="#41C2CB"/>
<stop offset="0.433" stop-color="#3FC1E1"/>
<stop offset="0.495" stop-color="#3EC0F1"/>
<stop offset="0.565" stop-color="#3DBFFA"/>
<stop offset="0.664" stop-color="#3DBFFD"/>
</radialGradient>
<clipPath id="clip0_49_350">
<rect width="28" height="28" fill="white"/>
</clipPath>
</defs>
</svg>
