<svg width="28" height="29" viewBox="0 0 28 29" fill="none" xmlns="http://www.w3.org/2000/svg">
<g clip-path="url(#clip0_49_330)">
<path d="M26.985 9.71C26.375 8.244 25.141 6.662 24.173 6.162C24.8625 7.49809 25.3415 8.93267 25.593 10.415L25.595 10.438C24.01 6.49 21.324 4.894 19.13 1.426C19.0167 1.24905 18.9067 1.07002 18.8 0.888999C18.7444 0.794498 18.6927 0.69775 18.645 0.598999C18.5545 0.422894 18.4843 0.237022 18.436 0.0449994C18.4361 0.0361059 18.4328 0.0275067 18.4269 0.0208595C18.421 0.0142122 18.4128 0.00998744 18.404 0.00899942C18.3954 0.00786795 18.3866 0.00786795 18.378 0.00899942L18.371 0.0129994L18.361 0.0179994L18.366 0.00799942C14.846 2.07 13.65 5.885 13.542 7.795C12.1353 7.8907 10.7902 8.40899 9.683 9.282C9.56762 9.18389 9.44676 9.09241 9.321 9.008C9.00184 7.89004 8.98837 6.70694 9.282 5.582C7.98935 6.20865 6.84055 7.0963 5.908 8.189H5.902C5.346 7.485 5.385 5.163 5.417 4.679C5.25233 4.745 5.09633 4.82767 4.949 4.927C4.45767 5.27767 4.001 5.66867 3.579 6.1C3.09833 6.588 2.66167 7.112 2.269 7.672C1.36729 8.94884 0.728248 10.3921 0.389 11.918L0.369 12.01C0.317667 12.3007 0.272 12.5927 0.232 12.886C0.232 12.896 0.230667 12.906 0.228 12.916C0.103754 13.5541 0.0275398 14.2005 0 14.85L0 14.922C0.00749015 18.4287 1.32904 21.8053 3.70389 24.3854C6.07873 26.9656 9.33438 28.5619 12.8285 28.8595C16.3225 29.1571 19.8012 28.1342 22.5782 25.9928C25.3551 23.8514 27.2286 20.7469 27.829 17.292C27.851 17.112 27.8723 16.9313 27.893 16.75C28.1822 14.3635 27.8694 11.9426 26.983 9.708L26.985 9.71ZM10.83 20.682C10.894 20.7153 10.9587 20.7473 11.024 20.778L11.034 20.784L10.83 20.682ZM25.595 10.442V10.429L25.598 10.444L25.595 10.442Z" fill="url(#paint0_linear_49_330)"/>
<path d="M26.985 9.71C26.375 8.244 25.141 6.662 24.173 6.162C24.8625 7.49809 25.3415 8.93267 25.593 10.415V10.428L25.595 10.443C26.6748 13.5346 26.5186 16.9238 25.159 19.903C23.552 23.351 19.666 26.883 13.579 26.71C7.00401 26.524 1.21001 21.643 0.129006 15.253C-0.067994 14.245 0.129006 13.734 0.229006 12.915C0.093006 13.551 0.018006 14.199 0.00300598 14.849V14.921C0.00761966 18.4295 1.32779 21.8086 3.70275 24.391C6.07771 26.9734 9.33477 28.5713 12.8306 28.869C16.3264 29.1667 19.8067 28.1426 22.5842 25.999C25.3616 23.8554 27.2342 20.7481 27.832 17.291C27.8547 17.111 27.876 16.9303 27.896 16.749C28.1851 14.3628 27.8722 11.9423 26.986 9.708L26.985 9.71Z" fill="url(#paint1_radial_49_330)"/>
<path d="M26.985 9.71C26.375 8.244 25.141 6.662 24.173 6.162C24.8625 7.49809 25.3415 8.93267 25.593 10.415V10.428L25.595 10.443C26.6748 13.5346 26.5186 16.9238 25.159 19.903C23.552 23.351 19.666 26.883 13.579 26.71C7.00401 26.524 1.21001 21.643 0.129006 15.253C-0.067994 14.245 0.129006 13.734 0.229006 12.915C0.093006 13.551 0.018006 14.199 0.00300598 14.849V14.921C0.00761966 18.4295 1.32779 21.8086 3.70275 24.391C6.07771 26.9734 9.33477 28.5713 12.8306 28.869C16.3264 29.1667 19.8067 28.1426 22.5842 25.999C25.3616 23.8554 27.2342 20.7481 27.832 17.291C27.8547 17.111 27.876 16.9303 27.896 16.749C28.1851 14.3628 27.8722 11.9423 26.986 9.708L26.985 9.71Z" fill="url(#paint2_radial_49_330)"/>
<path d="M20.172 11.355L20.259 11.419C19.9072 10.7944 19.4689 10.2228 18.957 9.721C14.599 5.363 17.815 0.275001 18.357 0.0140005L18.363 0.00600052C14.842 2.068 13.647 5.883 13.538 7.793C13.702 7.782 13.864 7.768 14.031 7.768C15.28 7.77011 16.5061 8.10306 17.5846 8.73295C18.6631 9.36284 19.5555 10.2672 20.171 11.354L20.172 11.355Z" fill="url(#paint3_radial_49_330)"/>
<path d="M14.038 12.227C14.015 12.575 12.783 13.777 12.352 13.777C8.367 13.777 7.72 16.189 7.72 16.189C7.896 18.219 9.311 19.892 11.021 20.775C11.099 20.815 11.178 20.8523 11.258 20.887C11.3953 20.9477 11.5323 21.004 11.669 21.056C12.2559 21.2643 12.8708 21.3829 13.493 21.408C20.48 21.735 21.833 13.054 16.791 10.533C17.9804 10.3781 19.1849 10.6703 20.171 11.353C19.5554 10.266 18.6629 9.3616 17.5842 8.7317C16.5055 8.1018 15.2791 7.76894 14.03 7.767C13.863 7.767 13.7 7.781 13.537 7.792C12.1302 7.88799 10.7851 8.40663 9.678 9.28C9.892 9.46 10.133 9.702 10.641 10.203C11.593 11.14 14.032 12.111 14.037 12.225L14.038 12.227Z" fill="url(#paint4_radial_49_330)"/>
<path d="M14.038 12.227C14.015 12.575 12.783 13.777 12.352 13.777C8.367 13.777 7.72 16.189 7.72 16.189C7.896 18.219 9.311 19.892 11.021 20.775C11.099 20.815 11.178 20.8523 11.258 20.887C11.3953 20.9477 11.5323 21.004 11.669 21.056C12.2559 21.2643 12.8708 21.3829 13.493 21.408C20.48 21.735 21.833 13.054 16.791 10.533C17.9804 10.3781 19.1849 10.6703 20.171 11.353C19.5554 10.266 18.6629 9.3616 17.5842 8.7317C16.5055 8.1018 15.2791 7.76894 14.03 7.767C13.863 7.767 13.7 7.781 13.537 7.792C12.1302 7.88799 10.7851 8.40663 9.678 9.28C9.892 9.46 10.133 9.702 10.641 10.203C11.593 11.14 14.032 12.111 14.037 12.225L14.038 12.227Z" fill="url(#paint5_radial_49_330)"/>
<path d="M9.025 8.816C9.139 8.889 9.233 8.952 9.315 9.008C8.99551 7.89013 8.9817 6.70703 9.275 5.582C7.98226 6.20895 6.83345 7.09694 5.901 8.19C5.97 8.188 8.003 8.152 9.025 8.816Z" fill="url(#paint6_radial_49_330)"/>
<path d="M0.126999 15.254C1.208 21.644 7.002 26.526 13.577 26.711C19.663 26.883 23.551 23.35 25.157 19.905C26.5168 16.9255 26.673 13.5359 25.593 10.444V10.43C25.593 10.42 25.59 10.414 25.593 10.417L25.595 10.44C26.092 13.687 24.441 16.83 21.859 18.96L21.851 18.979C16.821 23.077 12.007 21.451 11.034 20.787L10.83 20.686C7.898 19.284 6.686 16.613 6.946 14.321C6.24987 14.3311 5.56575 14.1392 4.9765 13.7684C4.38724 13.3976 3.91813 12.8639 3.626 12.232C4.39602 11.7605 5.27389 11.494 6.17606 11.4577C7.07823 11.4215 7.97465 11.6168 8.78 12.025C10.4397 12.7784 12.3282 12.8527 14.042 12.232C14.036 12.118 11.597 11.147 10.646 10.21C10.137 9.71 9.896 9.468 9.683 9.287C9.56762 9.18888 9.44676 9.0974 9.321 9.013L9.031 8.821C8.009 8.156 5.976 8.193 5.909 8.195H5.902C5.347 7.49 5.386 5.169 5.418 4.684C5.25267 4.75066 5.09666 4.83333 4.95 4.932C4.46 5.282 4 5.675 3.58 6.106C3.09733 6.59266 2.65867 7.11533 2.264 7.674C1.36228 8.95084 0.723246 10.3941 0.383999 11.92C0.376999 11.948 -0.121001 14.125 0.123999 15.254H0.126999Z" fill="url(#paint7_radial_49_330)"/>
<path d="M18.956 9.72C19.4681 10.2224 19.9064 10.7947 20.258 11.42C20.336 11.478 20.406 11.5353 20.468 11.592C23.646 14.522 21.981 18.662 21.857 18.956C24.438 16.829 26.088 13.683 25.593 10.435C24.007 6.482 21.318 4.887 19.126 1.419C19.0127 1.24206 18.9027 1.06303 18.796 0.882001C18.7415 0.787375 18.6902 0.69099 18.642 0.593001C18.551 0.416622 18.4806 0.230409 18.432 0.0380012C18.4321 0.0291077 18.4288 0.0205085 18.4229 0.0138613C18.417 0.00721403 18.4088 0.00298923 18.4 0.00200121C18.3917 0.000955447 18.3833 0.000955447 18.375 0.00200121L18.368 0.00600121L18.358 0.0110012C17.815 0.268001 14.6 5.36 18.958 9.714L18.956 9.72Z" fill="url(#paint8_radial_49_330)"/>
<path d="M20.468 11.594C20.4006 11.5335 20.3306 11.4761 20.258 11.422C20.23 11.4 20.201 11.3787 20.171 11.358C19.185 10.675 17.9805 10.3824 16.791 10.537C21.833 13.057 20.481 21.737 13.493 21.412C12.8711 21.3868 12.2566 21.2682 11.67 21.06C11.4491 20.9773 11.2325 20.8835 11.021 20.779L11.031 20.785C12.005 21.45 16.818 23.075 21.848 18.977L21.856 18.958C21.982 18.666 23.646 14.525 20.467 11.595L20.468 11.594Z" fill="url(#paint9_radial_49_330)"/>
<path d="M7.72 16.187C7.72 16.187 8.367 13.776 12.352 13.776C12.783 13.776 14.016 12.573 14.038 12.225C12.3243 12.8457 10.4357 12.7714 8.776 12.018C7.97078 11.61 7.07454 11.4148 6.17257 11.451C5.2706 11.4873 4.3929 11.7537 3.623 12.225C3.91528 12.8568 4.38445 13.3902 4.9737 13.7608C5.56294 14.1314 6.24699 14.3232 6.943 14.313C6.683 16.605 7.895 19.275 10.827 20.678C10.892 20.709 10.954 20.744 11.021 20.773C9.31 19.889 7.896 18.216 7.72 16.187Z" fill="url(#paint10_radial_49_330)"/>
<path d="M26.985 9.71C26.375 8.244 25.14 6.662 24.173 6.162C24.8625 7.49809 25.3415 8.93267 25.593 10.415L25.595 10.438C24.01 6.489 21.324 4.894 19.129 1.426C19.0157 1.24905 18.9057 1.07002 18.799 0.888999C18.7442 0.794058 18.6925 0.697339 18.644 0.598999C18.5531 0.422938 18.4827 0.237064 18.434 0.0449994C18.434 0.0361059 18.4308 0.0275067 18.4249 0.0208595C18.419 0.0142122 18.4108 0.00998744 18.402 0.00899942C18.3937 0.00795365 18.3853 0.00795365 18.377 0.00899942L18.37 0.0129994L18.36 0.0179994L18.365 0.00799942C14.845 2.07 13.649 5.885 13.541 7.795C13.704 7.784 13.866 7.77 14.033 7.77C15.2822 7.77204 16.5086 8.10505 17.5873 8.73513C18.6661 9.36521 19.5586 10.2699 20.174 11.357C19.188 10.674 17.9835 10.3814 16.794 10.536C21.836 13.056 20.484 21.736 13.496 21.411C12.8741 21.3858 12.2595 21.2672 11.673 21.059C11.4529 20.9746 11.2367 20.8805 11.025 20.777L11.035 20.784L10.831 20.682C10.896 20.714 10.957 20.747 11.025 20.777C9.31299 19.892 7.89999 18.221 7.72299 16.192C7.72299 16.192 8.36999 13.781 12.356 13.781C12.786 13.781 14.02 12.578 14.042 12.229C14.036 12.116 11.597 11.145 10.646 10.208C10.137 9.707 9.89599 9.466 9.68299 9.285C9.56764 9.18654 9.44678 9.09473 9.32099 9.01C9.00168 7.89244 8.98787 6.70971 9.28099 5.585C7.98871 6.21177 6.84025 7.09941 5.90799 8.192H5.89999C5.34499 7.488 5.38399 5.166 5.41599 4.682C5.25066 4.74733 5.09466 4.83 4.94799 4.93C4.45799 5.28 3.99799 5.672 3.57799 6.103C3.09666 6.591 2.65999 7.115 2.26799 7.675C1.36592 8.95176 0.726545 10.395 0.386993 11.921L0.367993 12.013C0.341993 12.137 0.222993 12.763 0.205993 12.898C0.0979929 13.5447 0.0289929 14.196 -0.00100708 14.852V14.924C0.0050593 18.4317 1.32598 21.8097 3.70097 24.391C6.07597 26.9724 9.33244 28.5696 12.8275 28.8672C16.3226 29.1648 19.8022 28.1413 22.5795 25.9987C25.3568 23.8561 27.2299 20.7502 27.829 17.294C27.851 17.114 27.872 16.9333 27.892 16.752C28.1812 14.3655 27.8684 11.9446 26.982 9.71H26.985Z" fill="url(#paint11_linear_49_330)"/>
</g>
<defs>
<linearGradient id="paint0_linear_49_330" x1="25.13" y1="4.486" x2="1.86" y2="26.937" gradientUnits="userSpaceOnUse">
<stop offset="0.048" stop-color="#FFF44F"/>
<stop offset="0.111" stop-color="#FFE847"/>
<stop offset="0.225" stop-color="#FFC830"/>
<stop offset="0.368" stop-color="#FF980E"/>
<stop offset="0.401" stop-color="#FF8B16"/>
<stop offset="0.462" stop-color="#FF672A"/>
<stop offset="0.534" stop-color="#FF3647"/>
<stop offset="0.705" stop-color="#E31587"/>
</linearGradient>
<radialGradient id="paint1_radial_49_330" cx="0" cy="0" r="1" gradientUnits="userSpaceOnUse" gradientTransform="translate(24.23 3.261) scale(29.2213)">
<stop offset="0.129" stop-color="#FFBD4F"/>
<stop offset="0.186" stop-color="#FFAC31"/>
<stop offset="0.247" stop-color="#FF9D17"/>
<stop offset="0.283" stop-color="#FF980E"/>
<stop offset="0.403" stop-color="#FF563B"/>
<stop offset="0.467" stop-color="#FF3750"/>
<stop offset="0.71" stop-color="#F5156C"/>
<stop offset="0.782" stop-color="#EB0878"/>
<stop offset="0.86" stop-color="#E50080"/>
</radialGradient>
<radialGradient id="paint2_radial_49_330" cx="0" cy="0" r="1" gradientUnits="userSpaceOnUse" gradientTransform="translate(13.38 15.196) scale(29.2213)">
<stop offset="0.3" stop-color="#960E18"/>
<stop offset="0.351" stop-color="#B11927" stop-opacity="0.74"/>
<stop offset="0.435" stop-color="#DB293D" stop-opacity="0.343"/>
<stop offset="0.497" stop-color="#F5334B" stop-opacity="0.094"/>
<stop offset="0.53" stop-color="#FF3750" stop-opacity="0"/>
</radialGradient>
<radialGradient id="paint3_radial_49_330" cx="0" cy="0" r="1" gradientUnits="userSpaceOnUse" gradientTransform="translate(16.996 -3.248) scale(21.1674 21.1674)">
<stop offset="0.132" stop-color="#FFF44F"/>
<stop offset="0.252" stop-color="#FFDC3E"/>
<stop offset="0.506" stop-color="#FF9D12"/>
<stop offset="0.526" stop-color="#FF980E"/>
</radialGradient>
<radialGradient id="paint4_radial_49_330" cx="0" cy="0" r="1" gradientUnits="userSpaceOnUse" gradientTransform="translate(10.125 22.79) scale(13.9127)">
<stop offset="0.353" stop-color="#3A8EE6"/>
<stop offset="0.472" stop-color="#5C79F0"/>
<stop offset="0.669" stop-color="#9059FF"/>
<stop offset="1" stop-color="#C139E6"/>
</radialGradient>
<radialGradient id="paint5_radial_49_330" cx="0" cy="0" r="1" gradientUnits="userSpaceOnUse" gradientTransform="translate(14.793 12.687) rotate(-13.5916) scale(7.37771 8.63744)">
<stop offset="0.206" stop-color="#9059FF" stop-opacity="0"/>
<stop offset="0.278" stop-color="#8C4FF3" stop-opacity="0.064"/>
<stop offset="0.747" stop-color="#7716A8" stop-opacity="0.45"/>
<stop offset="0.975" stop-color="#6E008B" stop-opacity="0.6"/>
</radialGradient>
<radialGradient id="paint6_radial_49_330" cx="0" cy="0" r="1" gradientUnits="userSpaceOnUse" gradientTransform="translate(13.018 2.176) scale(10.0105 10.0105)">
<stop stop-color="#FFE226"/>
<stop offset="0.121" stop-color="#FFDB27"/>
<stop offset="0.295" stop-color="#FFC82A"/>
<stop offset="0.502" stop-color="#FFA930"/>
<stop offset="0.732" stop-color="#FF7E37"/>
<stop offset="0.792" stop-color="#FF7139"/>
</radialGradient>
<radialGradient id="paint7_radial_49_330" cx="0" cy="0" r="1" gradientUnits="userSpaceOnUse" gradientTransform="translate(20.974 -4.333) scale(42.7109 42.7109)">
<stop offset="0.113" stop-color="#FFF44F"/>
<stop offset="0.456" stop-color="#FF980E"/>
<stop offset="0.622" stop-color="#FF5634"/>
<stop offset="0.716" stop-color="#FF3647"/>
<stop offset="0.904" stop-color="#E31587"/>
</radialGradient>
<radialGradient id="paint8_radial_49_330" cx="0" cy="0" r="1" gradientUnits="userSpaceOnUse" gradientTransform="translate(17.424 -1.965) rotate(83.976) scale(31.2992 20.5414)">
<stop stop-color="#FFF44F"/>
<stop offset="0.06" stop-color="#FFE847"/>
<stop offset="0.168" stop-color="#FFC830"/>
<stop offset="0.304" stop-color="#FF980E"/>
<stop offset="0.356" stop-color="#FF8B16"/>
<stop offset="0.455" stop-color="#FF672A"/>
<stop offset="0.57" stop-color="#FF3647"/>
<stop offset="0.737" stop-color="#E31587"/>
</radialGradient>
<radialGradient id="paint9_radial_49_330" cx="0" cy="0" r="1" gradientUnits="userSpaceOnUse" gradientTransform="translate(13.018 5.793) scale(26.6608)">
<stop offset="0.137" stop-color="#FFF44F"/>
<stop offset="0.48" stop-color="#FF980E"/>
<stop offset="0.592" stop-color="#FF5634"/>
<stop offset="0.655" stop-color="#FF3647"/>
<stop offset="0.904" stop-color="#E31587"/>
</radialGradient>
<radialGradient id="paint10_radial_49_330" cx="0" cy="0" r="1" gradientUnits="userSpaceOnUse" gradientTransform="translate(19.89 7.24) scale(29.1815 29.1815)">
<stop offset="0.094" stop-color="#FFF44F"/>
<stop offset="0.231" stop-color="#FFE141"/>
<stop offset="0.509" stop-color="#FFAF1E"/>
<stop offset="0.626" stop-color="#FF980E"/>
</radialGradient>
<linearGradient id="paint11_linear_49_330" x1="24.847" y1="4.367" x2="5.05099" y2="24.167" gradientUnits="userSpaceOnUse">
<stop offset="0.167" stop-color="#FFF44F" stop-opacity="0.8"/>
<stop offset="0.266" stop-color="#FFF44F" stop-opacity="0.634"/>
<stop offset="0.489" stop-color="#FFF44F" stop-opacity="0.217"/>
<stop offset="0.6" stop-color="#FFF44F" stop-opacity="0"/>
</linearGradient>
<clipPath id="clip0_49_330">
<rect width="28" height="29" fill="white"/>
</clipPath>
</defs>
</svg>
