<svg width="28" height="28" viewBox="0 0 28 28" fill="none" xmlns="http://www.w3.org/2000/svg">
<g clip-path="url(#clip0_49_324)">
<path d="M21 14C21 17.865 17.865 21 14 21C10.135 21 7 17.865 7 14C7 10.135 10.135 7 14 7C17.865 7 21 10.135 21 14Z" fill="white"/>
<path d="M19.13 17.647L13.42 27.986C5.957 27.685 0 21.532 0 14C0 6.272 6.272 0 14 0V7.7C12.3291 7.7 10.7267 8.36375 9.54523 9.54523C8.36375 10.7267 7.7 12.3291 7.7 14C7.7 15.6709 8.36375 17.2733 9.54523 18.4548C10.7267 19.6363 12.3291 20.3 14 20.3C15.0051 20.3014 15.9958 20.061 16.8886 19.5993C17.7815 19.1376 18.5502 18.468 19.13 17.647Z" fill="url(#paint0_linear_49_324)"/>
<path d="M28 14C28 21.735 21.735 28 14 28H13.412L19.132 17.647C19.8927 16.5832 20.3012 15.3078 20.3 14C20.3 12.3291 19.6363 10.7267 18.4548 9.54523C17.2733 8.36375 15.6709 7.7 14 7.7V0C19.467 0 24.185 3.136 26.495 7.7C27.4822 9.65348 27.9977 11.8112 28 14Z" fill="url(#paint1_linear_49_324)"/>
<path d="M26.488 7.7H14C12.3291 7.7 10.7267 8.36375 9.54523 9.54523C8.36375 10.7267 7.7 12.3291 7.7 14C7.7 15.043 7.952 16.023 8.407 16.89H8.4L2.212 6.483H2.198C3.45895 4.49488 5.20222 2.85796 7.26568 1.72447C9.32913 0.590992 11.6457 -0.00222494 14 -1.40155e-06C19.46 -1.40155e-06 24.185 3.136 26.488 7.7Z" fill="url(#paint2_linear_49_324)"/>
<path d="M18.9 14C18.9 15.2996 18.3838 16.5459 17.4648 17.4648C16.5459 18.3837 15.2996 18.9 14 18.9C12.7004 18.9 11.4541 18.3837 10.5352 17.4648C9.61625 16.5459 9.10001 15.2996 9.10001 14C9.10001 12.7004 9.61625 11.4541 10.5352 10.5352C11.4541 9.61625 12.7004 9.1 14 9.1C15.2996 9.1 16.5459 9.61625 17.4648 10.5352C18.3838 11.4541 18.9 12.7004 18.9 14Z" fill="url(#paint3_linear_49_324)"/>
</g>
<defs>
<linearGradient id="paint0_linear_49_324" x1="1.252" y1="8.151" x2="19.127" y2="17.655" gradientUnits="userSpaceOnUse">
<stop stop-color="#4CAF50"/>
<stop offset="0.489" stop-color="#4AAF50"/>
<stop offset="0.665" stop-color="#43AD50"/>
<stop offset="0.79" stop-color="#38AA50"/>
<stop offset="0.892" stop-color="#27A550"/>
<stop offset="0.978" stop-color="#11A050"/>
<stop offset="1" stop-color="#0A9E50"/>
</linearGradient>
<linearGradient id="paint1_linear_49_324" x1="20.706" y1="28" x2="20.706" y2="7.842" gradientUnits="userSpaceOnUse">
<stop stop-color="#FFD747"/>
<stop offset="0.482" stop-color="#FFD645"/>
<stop offset="0.655" stop-color="#FED43E"/>
<stop offset="0.779" stop-color="#FCCF33"/>
<stop offset="0.879" stop-color="#FAC922"/>
<stop offset="0.964" stop-color="#F7C10C"/>
<stop offset="1" stop-color="#F5BC00"/>
</linearGradient>
<linearGradient id="paint2_linear_49_324" x1="22.49" y1="1.192" x2="5.302" y2="11.932" gradientUnits="userSpaceOnUse">
<stop stop-color="#F7572F"/>
<stop offset="0.523" stop-color="#F7552D"/>
<stop offset="0.712" stop-color="#F75026"/>
<stop offset="0.846" stop-color="#F7461B"/>
<stop offset="0.954" stop-color="#F7390A"/>
<stop offset="1" stop-color="#F73100"/>
</linearGradient>
<linearGradient id="paint3_linear_49_324" x1="10.535" y1="10.535" x2="17.465" y2="17.465" gradientUnits="userSpaceOnUse">
<stop stop-color="#2AA4F4"/>
<stop offset="1" stop-color="#007AD9"/>
</linearGradient>
<clipPath id="clip0_49_324">
<rect width="28" height="28" fill="white"/>
</clipPath>
</defs>
</svg>
