<svg width="27" height="15" viewBox="0 0 27 15" fill="none" xmlns="http://www.w3.org/2000/svg">
<path fill-rule="evenodd" clip-rule="evenodd" d="M3.59601 1.79399C3.55445 1.74115 3.52397 1.68046 3.5064 1.61556C3.48883 1.55067 3.48453 1.4829 3.49376 1.4163C3.50298 1.34971 3.52554 1.28566 3.56009 1.22798C3.59464 1.1703 3.64046 1.12019 3.69482 1.08063C3.74918 1.04107 3.81097 1.01288 3.87647 0.997743C3.94198 0.982608 4.00986 0.98084 4.07607 0.992543C4.14227 1.00425 4.20544 1.02918 4.26178 1.06586C4.31813 1.10253 4.3665 1.15019 4.40401 1.20599L6.47801 4.05799C8.57192 2.71069 11.0101 1.99612 13.5 1.99999C16.087 1.99999 18.497 2.75499 20.522 4.05799L22.596 1.20599C22.676 1.1043 22.7923 1.03756 22.9204 1.01981C23.0486 1.00205 23.1786 1.03467 23.2832 1.11079C23.3878 1.18692 23.4589 1.30064 23.4814 1.42804C23.5039 1.55544 23.4762 1.68661 23.404 1.79399L21.342 4.62999C22.9459 5.84117 24.2467 7.40826 25.1418 9.2078C26.0368 11.0073 26.5018 12.9901 26.5 15H0.500005C0.498212 12.9901 0.963174 11.0073 1.85826 9.2078C2.75334 7.40826 4.05409 5.84117 5.65801 4.62999L3.59601 1.79399ZM8.5 9.74999C8.5 10.0815 8.36831 10.3995 8.13389 10.6339C7.89947 10.8683 7.58153 11 7.25001 11C6.91848 11 6.60054 10.8683 6.36612 10.6339C6.1317 10.3995 6.00001 10.0815 6.00001 9.74999C6.00001 9.41847 6.1317 9.10053 6.36612 8.86611C6.60054 8.63169 6.91848 8.49999 7.25001 8.49999C7.58153 8.49999 7.89947 8.63169 8.13389 8.86611C8.36831 9.10053 8.5 9.41847 8.5 9.74999ZM19.75 11C20.0815 11 20.3995 10.8683 20.6339 10.6339C20.8683 10.3995 21 10.0815 21 9.74999C21 9.41847 20.8683 9.10053 20.6339 8.86611C20.3995 8.63169 20.0815 8.49999 19.75 8.49999C19.4185 8.49999 19.1005 8.63169 18.8661 8.86611C18.6317 9.10053 18.5 9.41847 18.5 9.74999C18.5 10.0815 18.6317 10.3995 18.8661 10.6339C19.1005 10.8683 19.4185 11 19.75 11Z" fill="black"/>
</svg>
