<svg width="11" height="6" viewBox="0 0 11 6" fill="none" xmlns="http://www.w3.org/2000/svg">
<path d="M1.195 0.645998C1.11568 0.58756 1.02563 0.545317 0.929984 0.521681C0.83434 0.498045 0.734977 0.493479 0.637568 0.508243C0.54016 0.523008 0.446613 0.556814 0.362269 0.607731C0.277925 0.658648 0.204437 0.72568 0.145998 0.804998C0.0875601 0.884317 0.0453172 0.974369 0.0216811 1.07001C-0.00195491 1.16566 -0.00652113 1.26502 0.00824339 1.36243C0.0380617 1.55915 0.144808 1.73598 0.304998 1.854L5.055 5.354C5.18391 5.44902 5.33985 5.50028 5.5 5.50028C5.66015 5.50028 5.81609 5.44902 5.945 5.354L10.695 1.854C10.7743 1.79556 10.8413 1.72207 10.8923 1.63773C10.9432 1.55338 10.977 1.45984 10.9918 1.36243C11.0065 1.26502 11.002 1.16566 10.9783 1.07001C10.9547 0.974369 10.9124 0.884317 10.854 0.804998C10.7956 0.72568 10.7221 0.658648 10.6377 0.607731C10.5534 0.556814 10.4598 0.523008 10.3624 0.508243C10.265 0.493479 10.1657 0.498045 10.07 0.521681C9.97437 0.545317 9.88432 0.58756 9.805 0.645998L5.5 3.818L1.195 0.645998Z" fill="black"/>
</svg>
