<svg width="19" height="23" viewBox="0 0 19 23" fill="none" xmlns="http://www.w3.org/2000/svg">
<path d="M17.201 19.688C16.267 21.083 15.277 22.444 13.77 22.466C12.262 22.5 11.779 21.578 10.069 21.578C8.34699 21.578 7.81899 22.444 6.38999 22.5C4.91599 22.556 3.80299 21.015 2.85799 19.654C0.933994 16.875 -0.540006 11.756 1.43999 8.314C2.41899 6.604 4.17399 5.524 6.07499 5.49C7.51499 5.468 8.88799 6.469 9.77599 6.469C10.654 6.469 12.319 5.265 14.063 5.445C14.793 5.479 16.841 5.738 18.158 7.673C18.056 7.74 15.716 9.113 15.738 11.959C15.773 15.356 18.72 16.493 18.754 16.504C18.72 16.583 18.281 18.124 17.201 19.688ZM10.777 1.688C11.6 0.754 12.96 0.045 14.086 0C14.232 1.316 13.703 2.644 12.916 3.589C12.14 4.545 10.857 5.288 9.59699 5.186C9.42899 3.893 10.057 2.543 10.777 1.688Z" fill="black"/>
</svg>
