<svg width="24" height="19" viewBox="0 0 24 19" fill="none" xmlns="http://www.w3.org/2000/svg">
<path fill-rule="evenodd" clip-rule="evenodd" d="M2.08099 8.18001C8.25499 5.49801 12.372 3.73001 14.432 2.87601C20.314 0.438005 21.536 0.0140056 22.332 5.587e-06C22.507 -0.00299441 22.899 0.0400054 23.152 0.246005C23.367 0.419005 23.426 0.653005 23.454 0.817006C23.483 0.982006 23.518 1.35601 23.49 1.64801C23.171 4.98701 21.792 13.088 21.09 16.826C20.794 18.408 20.209 18.939 19.643 18.991C18.413 19.103 17.479 18.181 16.288 17.402C14.424 16.184 13.371 15.426 11.562 14.237C9.47099 12.864 10.826 12.109 12.018 10.875C12.33 10.552 17.748 5.63901 17.853 5.19301C17.866 5.13801 17.879 4.93001 17.755 4.82001C17.631 4.71001 17.448 4.74801 17.316 4.77801C17.1293 4.82001 14.1517 6.78201 8.38299 10.664C7.53833 11.242 6.77266 11.5237 6.08599 11.509C5.32999 11.493 3.87599 11.083 2.79399 10.733C1.46799 10.303 0.413994 10.076 0.505994 9.34601C0.553327 8.96601 1.07833 8.57701 2.08099 8.17901" fill="#10161F"/>
</svg>
