<svg width="35" height="35" viewBox="0 0 35 35" fill="none" xmlns="http://www.w3.org/2000/svg">
<path d="M8.87509 34.8762C6.79362 34.7816 5.66291 34.4352 4.91084 34.1418C3.91432 33.7538 3.20385 33.292 2.45594 32.5451C1.70803 31.7982 1.24513 31.0878 0.859215 30.0912C0.565875 29.3392 0.219485 28.2085 0.124825 26.127C0.0208042 23.877 0 23.2019 0 17.5016C0 11.8012 0.0228847 11.1271 0.123785 8.87509C0.218444 6.79362 0.566915 5.66499 0.858175 4.91084C1.24617 3.91432 1.70907 3.20385 2.4549 2.4549C3.20177 1.70803 3.91224 1.24409 4.9098 0.858175C5.66187 0.564835 6.79258 0.218444 8.87404 0.123785C11.1251 0.0208042 11.8012 0 17.4995 0C23.1998 0 23.8739 0.0228847 26.126 0.123785C28.2074 0.218444 29.336 0.566915 30.0902 0.858175C31.0867 1.24409 31.7972 1.70803 32.5451 2.4549C33.293 3.20177 33.7538 3.91328 34.1418 4.9098C34.4352 5.66187 34.7816 6.79258 34.8762 8.87404C34.9792 11.1261 35 11.8002 35 17.5005C35 23.1988 34.9792 23.8749 34.8762 26.127C34.7816 28.2085 34.4331 29.3392 34.1418 30.0912C33.7538 31.0878 33.292 31.7982 32.5451 32.5451C31.7982 33.292 31.0867 33.7538 30.0902 34.1418C29.3381 34.4352 28.2074 34.7816 26.126 34.8762C23.876 34.9792 23.1998 35 17.4995 35C11.8012 35 11.1251 34.9802 8.87509 34.8762" fill="url(#paint0_radial_244_21)"/>
<path d="M8.87509 34.8762C6.79362 34.7816 5.66291 34.4352 4.91084 34.1418C3.91432 33.7538 3.20385 33.292 2.45594 32.5451C1.70803 31.7982 1.24513 31.0878 0.859215 30.0912C0.565875 29.3392 0.219485 28.2085 0.124825 26.127C0.0208042 23.877 0 23.2019 0 17.5016C0 11.8012 0.0228847 11.1271 0.123785 8.87509C0.218444 6.79362 0.566915 5.66499 0.858175 4.91084C1.24617 3.91432 1.70907 3.20385 2.4549 2.4549C3.20177 1.70803 3.91224 1.24409 4.9098 0.858175C5.66187 0.564835 6.79258 0.218444 8.87404 0.123785C11.1251 0.0208042 11.8012 0 17.4995 0C23.1998 0 23.8739 0.0228847 26.126 0.123785C28.2074 0.218444 29.336 0.566915 30.0902 0.858175C31.0867 1.24409 31.7972 1.70803 32.5451 2.4549C33.293 3.20177 33.7538 3.91328 34.1418 4.9098C34.4352 5.66187 34.7816 6.79258 34.8762 8.87404C34.9792 11.1261 35 11.8002 35 17.5005C35 23.1988 34.9792 23.8749 34.8762 26.127C34.7816 28.2085 34.4331 29.3392 34.1418 30.0912C33.7538 31.0878 33.292 31.7982 32.5451 32.5451C31.7982 33.292 31.0867 33.7538 30.0902 34.1418C29.3381 34.4352 28.2074 34.7816 26.126 34.8762C23.876 34.9792 23.1998 35 17.4995 35C11.8012 35 11.1251 34.9802 8.87509 34.8762" fill="url(#paint1_radial_244_21)"/>
<path d="M13.203 17.5746C13.203 15.1809 15.1429 13.24 17.5365 13.24C19.9301 13.24 21.8711 15.1809 21.8711 17.5746C21.8711 19.9682 19.9301 21.9091 17.5365 21.9091C15.1429 21.9091 13.203 19.9682 13.203 17.5746V17.5746ZM10.8598 17.5746C10.8598 21.2621 13.8489 24.2513 17.5365 24.2513C21.2241 24.2513 24.2132 21.2621 24.2132 17.5746C24.2132 13.887 21.2241 10.8979 17.5365 10.8979C13.8489 10.8979 10.8599 13.8868 10.8599 17.5746H10.8598ZM22.9173 10.6331C22.9172 10.9417 23.0086 11.2434 23.1799 11.5001C23.3513 11.7568 23.5949 11.9569 23.88 12.0751C24.165 12.1933 24.4787 12.2243 24.7814 12.1642C25.0841 12.1041 25.3622 11.9556 25.5805 11.7375C25.7988 11.5194 25.9475 11.2414 26.0079 10.9388C26.0682 10.6361 26.0374 10.3224 25.9194 10.0372C25.8015 9.75207 25.6016 9.50831 25.345 9.33675C25.0885 9.1652 24.7869 9.07357 24.4783 9.07345H24.4776C24.064 9.07364 23.6673 9.238 23.3748 9.53044C23.0822 9.82288 22.9177 10.2195 22.9173 10.6331V10.6331ZM12.2834 28.1585C11.0157 28.1008 10.3267 27.8896 9.86876 27.7112C9.26169 27.4749 8.82855 27.1934 8.37314 26.7386C7.91774 26.2839 7.63584 25.8511 7.40054 25.2441C7.22204 24.7864 7.01088 24.0971 6.95325 22.8294C6.89021 21.4588 6.87763 21.0471 6.87763 17.5748C6.87763 14.1025 6.89125 13.6919 6.95325 12.3202C7.01098 11.0524 7.22371 10.3646 7.40054 9.90551C7.63688 9.29844 7.91836 8.8653 8.37314 8.40989C8.82792 7.95449 9.26065 7.67259 9.86876 7.4373C10.3265 7.2588 11.0157 7.04763 12.2834 6.99001C13.654 6.92697 14.0657 6.91438 17.5365 6.91438C21.0073 6.91438 21.4194 6.9278 22.7911 6.99021C24.0589 7.04795 24.7467 7.26067 25.2058 7.4375C25.8129 7.6728 26.246 7.95532 26.7014 8.4101C27.1568 8.86488 27.4377 9.29865 27.674 9.90572C27.8525 10.3634 28.0637 11.0527 28.1213 12.3204C28.1843 13.6921 28.1969 14.1027 28.1969 17.575C28.1969 21.0473 28.1843 21.4579 28.1213 22.8296C28.0636 24.0973 27.8514 24.7864 27.674 25.2443C27.4377 25.8513 27.1562 26.2845 26.7014 26.7388C26.2466 27.1932 25.8129 27.4751 25.2058 27.7114C24.7481 27.8899 24.0589 28.1011 22.7911 28.1587C21.4206 28.2218 21.0088 28.2344 17.5365 28.2344C14.0642 28.2344 13.6536 28.2218 12.2834 28.1587V28.1585ZM12.1758 4.65067C10.7915 4.71371 9.84567 4.9332 9.01964 5.25462C8.16468 5.58655 7.43997 6.03187 6.71629 6.7544C5.99261 7.47693 5.54844 8.20175 5.21651 9.05774C4.89508 9.88429 4.67559 10.8296 4.61256 12.2138C4.54848 13.6002 4.53381 14.0435 4.53381 17.5746C4.53381 21.1057 4.54848 21.5489 4.61256 22.9353C4.67559 24.3196 4.89508 25.2649 5.21651 26.0914C5.54844 26.9464 5.99271 27.6725 6.71629 28.3948C7.43986 29.117 8.16364 29.5617 9.01964 29.8945C9.84723 30.216 10.7915 30.4354 12.1758 30.4985C13.5629 30.5615 14.0054 30.5772 17.5365 30.5772C21.0676 30.5772 21.5108 30.5626 22.8972 30.4985C24.2816 30.4354 25.2268 30.216 26.0534 29.8945C26.9083 29.5617 27.633 29.1173 28.3567 28.3948C29.0804 27.6722 29.5236 26.9464 29.8565 26.0914C30.1779 25.2649 30.3984 24.3195 30.4604 22.9353C30.5235 21.5479 30.5381 21.1057 30.5381 17.5746C30.5381 14.0435 30.5235 13.6002 30.4604 12.2138C30.3974 10.8295 30.1779 9.88377 29.8565 9.05774C29.5236 8.20279 29.0792 7.47807 28.3567 6.7544C27.6342 6.03072 26.9083 5.58655 26.0544 5.25462C25.2268 4.9332 24.2815 4.71267 22.8983 4.65067C21.5117 4.58733 21.0687 4.57193 17.5381 4.57193C14.0075 4.57193 13.5634 4.5866 12.1763 4.65067" fill="white"/>
<defs>
<radialGradient id="paint0_radial_244_21" cx="0" cy="0" r="1" gradientUnits="userSpaceOnUse" gradientTransform="translate(2.26516 34.2333) scale(44.437)">
<stop offset="0.09" stop-color="#FA8F21"/>
<stop offset="0.78" stop-color="#D82D7E"/>
</radialGradient>
<radialGradient id="paint1_radial_244_21" cx="0" cy="0" r="1" gradientUnits="userSpaceOnUse" gradientTransform="translate(24.2433 33.1094) scale(39.105)">
<stop offset="0.64" stop-color="#8C3AAA" stop-opacity="0"/>
<stop offset="1" stop-color="#8C3AAA"/>
</radialGradient>
</defs>
</svg>
