<svg width="28" height="24" viewBox="0 0 28 24" fill="none" xmlns="http://www.w3.org/2000/svg">
<path fill-rule="evenodd" clip-rule="evenodd" d="M2.46769 10.5697C9.73746 7.40228 14.5848 5.3139 17.0096 4.3046C23.9351 1.42553 25.3817 0.925532 26.3119 0.906928C26.6568 0.900222 26.9952 1.00189 27.2793 1.19763C27.4787 1.36954 27.6058 1.61042 27.6351 1.87204C27.6852 2.19741 27.6993 2.52732 27.677 2.85577C27.3026 6.80925 25.677 16.3651 24.8514 20.7813C24.5026 22.6418 23.8142 23.2767 23.1468 23.3395C21.7002 23.472 20.5886 22.3813 19.1933 21.4627C16.9979 20.0232 15.7584 19.1372 13.6282 17.7232C11.1654 16.0953 12.763 15.2093 14.1654 13.7534C14.5328 13.372 20.9096 7.56739 21.0351 7.04181C21.0517 6.9642 21.0498 6.88379 21.0296 6.80704C21.0094 6.7303 20.9715 6.65936 20.9189 6.59995C20.8425 6.55224 20.7561 6.52299 20.6665 6.51451C20.5769 6.50603 20.4865 6.51857 20.4026 6.55111C20.184 6.59918 16.6786 8.91623 9.8863 13.5023C8.89096 14.186 7.9894 14.5193 7.18165 14.5023C6.29095 14.4813 4.57932 13.9976 3.3049 13.572C1.74443 13.0651 0.51421 12.7976 0.611884 11.9441C0.669249 11.4976 1.28785 11.0395 2.46769 10.5697Z" fill="white"/>
</svg>
