<svg width="35" height="35" viewBox="0 0 35 35" fill="none" xmlns="http://www.w3.org/2000/svg">
<path d="M17.5 35C27.165 35 35 27.165 35 17.5C35 7.83503 27.165 0 17.5 0C7.83503 0 0 7.83503 0 17.5C0 27.165 7.83503 35 17.5 35Z" fill="#34AADF"/>
<path d="M7.2833 17.3482C7.2833 17.3482 16.0333 13.7572 19.0679 12.4928C20.2313 11.987 24.1763 10.3685 24.1763 10.3685C24.1763 10.3685 25.9972 9.66041 25.8454 11.38C25.7948 12.0882 25.3902 14.5664 24.9856 17.2471C24.3786 21.0405 23.7211 25.1878 23.7211 25.1878C23.7211 25.1878 23.62 26.3511 22.7602 26.5534C21.9003 26.7557 20.4841 25.8454 20.2313 25.643C20.0289 25.4913 16.4379 23.2153 15.1229 22.1026C14.7688 21.7991 14.3642 21.1922 15.1734 20.4841C16.9943 18.815 19.1691 16.7413 20.4841 15.4263C21.0911 14.8193 21.698 13.4032 19.1691 15.1228C15.5781 17.6011 12.0376 19.9277 12.0376 19.9277C12.0376 19.9277 11.2284 20.4335 9.71104 19.9783C8.19365 19.5231 6.42342 18.9162 6.42342 18.9162C6.42342 18.9162 5.20962 18.1575 7.2833 17.3482V17.3482Z" fill="white"/>
</svg>
