<svg width="35" height="35" viewBox="0 0 35 35" fill="none" xmlns="http://www.w3.org/2000/svg">
<path d="M30.625 0H4.375C1.95875 0 0 1.95875 0 4.375V30.625C0 33.0412 1.95875 35 4.375 35H30.625C33.0412 35 35 33.0412 35 30.625V4.375C35 1.95875 33.0412 0 30.625 0Z" fill="#7B519D"/>
<path fill-rule="evenodd" clip-rule="evenodd" d="M28.8418 23.6152C28.0079 22.9439 27.1169 22.3414 26.2398 21.7259C24.4904 20.4972 22.8904 20.4017 21.5851 22.3784C20.8521 23.4882 19.826 23.5368 18.753 23.0499C15.7951 21.7087 13.511 19.6422 12.1731 16.6358C11.5812 15.3056 11.589 14.1131 12.9738 13.1723C13.7069 12.6748 14.4455 12.0861 14.3865 10.999C14.3094 9.58148 10.8677 4.84438 9.50858 4.3444C8.94619 4.13747 8.38612 4.15094 7.81395 4.34323C4.62705 5.41497 3.30703 8.03594 4.5712 11.1393C8.34258 20.398 14.9796 26.8437 24.1158 30.7777C24.6367 31.0017 25.2153 31.0913 25.5083 31.1717C27.5883 31.1926 30.025 29.1886 30.7287 27.1997C31.4062 25.2864 29.9744 24.5269 28.8418 23.6152ZM18.5978 5.29363C25.277 6.32073 28.3573 9.49671 29.2078 16.224C29.2867 16.8453 29.0553 17.7804 29.9418 17.7976C30.8683 17.8153 30.6451 16.8941 30.6529 16.2721C30.7312 9.93626 25.2068 4.06269 18.7909 3.84613C18.3069 3.91578 17.3053 3.51233 17.2428 4.59726C17.2012 5.3287 18.0444 5.20853 18.5978 5.29363V5.29363Z" fill="white"/>
<path fill-rule="evenodd" clip-rule="evenodd" d="M19.9043 7.13813C19.2619 7.06075 18.4138 6.75805 18.2636 7.64946C18.1069 8.5851 19.0522 8.49008 19.6595 8.62604C23.7847 9.54801 25.2211 11.0495 25.9003 15.1415C25.9995 15.738 25.8024 16.6666 26.8163 16.5127C27.5676 16.3982 27.2962 15.6023 27.359 15.1374C27.3923 11.2088 24.026 7.63305 19.9043 7.13813V7.13813Z" fill="white"/>
<path fill-rule="evenodd" clip-rule="evenodd" d="M20.2831 10.3507C19.8543 10.3613 19.4334 10.4077 19.2758 10.866C19.0391 11.5509 19.5371 11.7142 20.0439 11.7956C21.7362 12.0673 22.6267 13.0651 22.7958 14.7526C22.8414 15.2106 23.1321 15.5818 23.5745 15.5295C24.1876 15.4564 24.2431 14.9107 24.2243 14.3925C24.2545 12.4966 22.1117 10.3053 20.2831 10.3507V10.3507Z" fill="white"/>
</svg>
