<svg width="26" height="26" viewBox="0 0 26 26" fill="none" xmlns="http://www.w3.org/2000/svg">
<path d="M22.505 2.54182C21.8654 1.9488 19.2724 0.067404 13.498 0.0418226C13.498 0.0418226 6.68868 -0.369801 3.37007 2.67671C1.50961 4.52322 0.872401 7.22787 0.811936 10.5837C0.751471 13.9395 0.653796 20.2186 6.71194 21.9232V24.5232C6.71194 24.5232 6.6724 25.5744 7.36542 25.7907C8.20263 26.0488 8.69566 25.2488 9.49566 24.3953C9.93519 23.9302 10.5422 23.2325 10.998 22.6953C15.1422 23.0442 18.3259 22.2465 18.6887 22.1279C19.5259 21.8581 24.2584 21.2511 25.0282 14.9674C25.8143 8.48369 24.6352 4.38833 22.505 2.54182ZM23.2026 14.4953C22.5538 19.7395 18.7143 20.0767 18.0073 20.2976C15.8433 20.8253 13.6107 21.0152 11.3887 20.8604C11.3887 20.8604 8.7724 24.0232 7.9538 24.8465C7.90778 24.9009 7.84924 24.9433 7.7832 24.97C7.71717 24.9967 7.64562 25.007 7.57473 25C7.43519 24.9651 7.39566 24.8 7.39798 24.5558C7.39798 24.2069 7.41891 20.2349 7.41891 20.2349C2.30263 18.8116 2.59566 13.4651 2.6538 10.6651C2.71194 7.86508 3.23752 5.56973 4.80031 4.02787C7.60728 1.48369 13.391 1.86508 13.391 1.86508C18.2747 1.88601 20.6166 3.35578 21.1584 3.84881C22.9608 5.39299 23.8794 9.08369 23.2073 14.493L23.2026 14.4953Z" fill="white"/>
<path d="M15.8748 10.7604C15.7912 10.7605 15.7108 10.7284 15.6502 10.6709C15.5895 10.6133 15.5534 10.5346 15.5492 10.4511C15.4934 9.34178 14.9725 8.79759 13.9074 8.74178C13.821 8.73746 13.7399 8.69902 13.6819 8.63491C13.6239 8.5708 13.5937 8.48627 13.5981 8.39992C13.6024 8.31357 13.6408 8.23247 13.7049 8.17447C13.769 8.11646 13.8536 8.0863 13.9399 8.09062C15.3353 8.16504 16.1283 8.96969 16.2004 10.4162C16.2042 10.5024 16.1739 10.5867 16.116 10.6507C16.0581 10.7147 15.9773 10.7532 15.8911 10.7581L15.8748 10.7604Z" fill="white"/>
<path d="M17.5488 11.3232C17.4622 11.3207 17.3801 11.2842 17.3204 11.2214C17.2607 11.1587 17.2283 11.0749 17.2302 10.9883C17.2595 10.4861 17.1885 9.98314 17.0212 9.50876C16.8539 9.03438 16.5937 8.59812 16.2557 8.2255C15.5767 7.48364 14.6464 7.08131 13.4116 6.99061C13.3688 6.98756 13.3271 6.97611 13.2887 6.95693C13.2504 6.93775 13.2162 6.9112 13.1881 6.87881C13.1601 6.84642 13.1387 6.80881 13.1251 6.76814C13.1116 6.72747 13.1062 6.68453 13.1092 6.64178C13.1123 6.59902 13.1237 6.55729 13.1429 6.51895C13.1621 6.48062 13.1886 6.44644 13.221 6.41837C13.2534 6.39029 13.291 6.36888 13.3317 6.35534C13.3724 6.3418 13.4153 6.3364 13.4581 6.33945C14.8534 6.43945 15.9511 6.92782 16.7371 7.78596C17.1306 8.22015 17.4345 8.72778 17.6312 9.27973C17.828 9.83167 17.9138 10.417 17.8836 11.0022C17.8827 11.0453 17.8734 11.0878 17.856 11.1272C17.8387 11.1666 17.8138 11.2023 17.7827 11.2321C17.7516 11.2619 17.7149 11.2853 17.6748 11.3009C17.6347 11.3165 17.5918 11.3241 17.5488 11.3232Z" fill="white"/>
<path d="M19.2654 11.993C19.1795 11.993 19.097 11.959 19.036 11.8985C18.975 11.8379 18.9405 11.7557 18.9398 11.6697C18.9236 9.69998 18.3329 8.13253 17.1817 7.01858C16.6086 6.46097 15.9306 6.02258 15.1869 5.72878C14.4432 5.43498 13.6486 5.2916 12.8491 5.30696C12.7672 5.30004 12.6909 5.26262 12.6353 5.20211C12.5797 5.1416 12.5488 5.0624 12.5488 4.98021C12.5488 4.89802 12.5797 4.81883 12.6353 4.75831C12.6909 4.6978 12.7672 4.66038 12.8491 4.65347C13.732 4.63481 14.6099 4.79149 15.4318 5.11444C16.2538 5.43738 17.0035 5.92018 17.6375 6.53486C18.9189 7.7837 19.5747 9.50695 19.591 11.6511C19.5916 11.694 19.5837 11.7365 19.5677 11.7763C19.5518 11.816 19.5281 11.8522 19.498 11.8827C19.4679 11.9132 19.4321 11.9375 19.3925 11.954C19.353 11.9705 19.3106 11.9791 19.2677 11.979L19.2654 11.993Z" fill="white"/>
<path d="M13.9885 14.8093C14.1172 14.8174 14.2461 14.7978 14.3665 14.7516C14.4869 14.7055 14.5959 14.6339 14.6862 14.5419L15.1699 13.9372C15.336 13.7533 15.5615 13.6339 15.807 13.5999C16.0524 13.5659 16.3019 13.6194 16.5118 13.7512C16.9239 13.9846 17.3236 14.2392 17.7094 14.5139C18.0722 14.7837 18.8187 15.4046 18.8211 15.4046C18.9943 15.548 19.1098 15.7492 19.1461 15.9711C19.1825 16.193 19.1372 16.4205 19.0187 16.6116C18.7513 17.0738 18.4122 17.4907 18.0141 17.8465C17.7295 18.106 17.3756 18.2773 16.9955 18.3395C16.946 18.3453 16.8961 18.3453 16.8466 18.3395C16.6998 18.3404 16.5537 18.3177 16.4141 18.2721V18.2558C15.9001 18.1116 15.042 17.7488 13.6234 16.9605C12.792 16.5198 11.9999 16.0086 11.2559 15.4326C10.8852 15.1436 10.5318 14.833 10.1978 14.5023L10.1606 14.4674L10.1257 14.4302L10.0908 14.3953L10.0536 14.3605C9.72411 14.0253 9.41355 13.6721 9.12338 13.3023C8.5354 12.5651 8.01104 11.7794 7.55594 10.9535C6.76757 9.52557 6.39315 8.66976 6.26059 8.16278H6.24431C6.1995 8.02303 6.17751 7.87698 6.1792 7.73023C6.17334 7.68079 6.17334 7.63083 6.1792 7.58139C6.24017 7.19123 6.41398 6.82744 6.6792 6.53488C7.03494 6.13662 7.45178 5.7975 7.91408 5.53022C8.1047 5.41212 8.33157 5.36685 8.55292 5.40274C8.77427 5.43864 8.9752 5.55328 9.11873 5.72557C9.11873 5.72557 9.74199 6.47441 10.0094 6.8372C10.2769 7.19999 10.5583 7.61162 10.7908 8.02325C10.9216 8.23336 10.9747 8.48269 10.9407 8.72785C10.9067 8.97302 10.7878 9.19852 10.6048 9.36511L9.9978 9.8465C9.90615 9.93697 9.83504 10.0461 9.7893 10.1665C9.74355 10.2869 9.72425 10.4157 9.73269 10.5442C9.73269 10.5442 10.6327 13.9512 13.9885 14.8093Z" fill="white"/>
</svg>
