<svg width="35" height="35" viewBox="0 0 35 35" fill="none" xmlns="http://www.w3.org/2000/svg">
<path fill-rule="evenodd" clip-rule="evenodd" d="M12.1333 0H22.8667C32.6667 0 35 2.33333 35 12.1333V22.8667C35 32.6667 32.6667 35 22.8667 35H12.1333C2.33333 35 0 32.6667 0 22.8667V12.1333C0 2.33333 2.33333 0 12.1333 0Z" fill="#2787F5"/>
<path fill-rule="evenodd" clip-rule="evenodd" d="M28.6624 12.0579C28.8246 11.5171 28.6624 11.1198 27.8907 11.1198H25.3386C24.6897 11.1198 24.3905 11.463 24.2283 11.8415C24.2283 11.8415 22.9304 15.005 21.0919 17.0598C20.4971 17.6546 20.2267 17.8439 19.9022 17.8439C19.74 17.8439 19.5052 17.6546 19.5052 17.1139V12.0579C19.5052 11.409 19.3169 11.1198 18.7761 11.1198H14.7657C14.3601 11.1198 14.1163 11.421 14.1163 11.7064C14.1163 12.3215 15.0355 12.4634 15.1302 14.1938V17.9521C15.1302 18.776 14.9814 18.9254 14.657 18.9254C13.7918 18.9254 11.6873 15.7479 10.4391 12.1119C10.1945 11.4053 9.94914 11.1198 9.2969 11.1198H6.74482C6.01565 11.1198 5.86981 11.463 5.86981 11.8415C5.86981 12.5175 6.73502 15.8702 9.89839 20.3043C12.0073 23.3325 14.9786 24.974 17.6823 24.974C19.3046 24.974 19.5052 24.6094 19.5052 23.9814V21.6927C19.5052 20.9635 19.6589 20.818 20.1726 20.818C20.5511 20.818 21.2 21.0073 22.7142 22.4673C24.4446 24.1977 24.7298 24.974 25.7032 24.974H28.2552C28.9844 24.974 29.349 24.6094 29.1387 23.8899C28.9085 23.1728 28.0823 22.1324 26.9861 20.8991C26.3912 20.1962 25.499 19.4391 25.2286 19.0605C24.8501 18.5739 24.9583 18.3576 25.2286 17.925C25.2286 17.925 28.338 13.5449 28.6624 12.0579V12.0579Z" fill="white"/>
</svg>
