<svg width="26" height="26" viewBox="0 0 26 26" fill="none" xmlns="http://www.w3.org/2000/svg">
<path d="M0.769531 25.4419L2.52536 19.0326C1.16698 16.6739 0.624659 13.933 0.982459 11.2348C1.34026 8.53651 2.57818 6.03166 4.50434 4.10853C6.4305 2.18539 8.9373 0.951397 11.6361 0.59784C14.3349 0.244283 17.075 0.790915 19.4315 2.15299C21.7881 3.51507 23.6294 5.61651 24.6702 8.13154C25.711 10.6466 25.893 13.4347 25.188 16.0637C24.483 18.6927 22.9305 21.0157 20.771 22.6725C18.6116 24.3294 15.9658 25.2276 13.244 25.2279C11.1793 25.2268 9.14775 24.7087 7.33466 23.721L0.769531 25.4419ZM7.63 21.4884L8.00675 21.721C9.591 22.6592 11.3981 23.1547 13.2393 23.1558C15.5194 23.1563 17.7349 22.399 19.5376 21.003C21.3403 19.6071 22.628 17.6516 23.1983 15.444C23.7685 13.2364 23.5889 10.9019 22.6877 8.80753C21.7865 6.71314 20.2149 4.97763 18.2198 3.87383C16.2248 2.77003 13.9195 2.36053 11.6664 2.70973C9.41321 3.05893 7.34001 4.14701 5.77267 5.80292C4.20533 7.45882 3.23273 9.58865 3.00779 11.8576C2.78285 14.1265 3.31832 16.4058 4.53001 18.3372L4.76256 18.7256L3.72302 22.5186L7.63 21.4884Z" fill="white"/>
<path fill-rule="evenodd" clip-rule="evenodd" d="M19.4745 15.8C19.3978 15.6698 19.1908 15.593 18.8815 15.4395C18.5722 15.2861 17.0536 14.5372 16.7699 14.4326C16.4862 14.3279 16.2815 14.2791 16.0722 14.5884C15.8629 14.8977 15.2745 15.593 15.0955 15.8C14.9164 16.007 14.7327 16.0326 14.4257 15.8768C13.5192 15.5127 12.6828 14.9942 11.9536 14.3442C11.2779 13.7192 10.6987 12.9974 10.235 12.2023C10.0536 11.893 10.2141 11.7372 10.3699 11.5721C10.5257 11.407 10.6792 11.2093 10.835 11.0302C10.9629 10.8743 11.0671 10.7003 11.1443 10.514C11.185 10.4285 11.204 10.3344 11.1995 10.2398C11.195 10.1453 11.1673 10.0533 11.1187 9.97211C11.042 9.81862 10.421 8.29769 10.1652 7.67908C9.90942 7.06048 9.66058 7.15815 9.46756 7.14653C9.27454 7.1349 9.08152 7.14653 8.87687 7.14653C8.71792 7.14915 8.56129 7.18507 8.41709 7.25196C8.27288 7.31886 8.1443 7.41524 8.03965 7.5349C7.69283 7.86375 7.41774 8.26074 7.23164 8.70097C7.04555 9.14119 6.95248 9.61513 6.95826 10.093C6.95826 11.614 8.06524 13.0837 8.22105 13.2907C8.37686 13.4977 10.4001 16.6186 13.5001 17.9558C14.0757 18.2042 14.6641 18.4215 15.2629 18.607C15.8934 18.7985 16.5598 18.8407 17.2094 18.7302C17.8024 18.6419 19.0373 17.9814 19.3024 17.2605C19.5676 16.5395 19.5513 15.9279 19.4745 15.8Z" fill="white"/>
</svg>
