<svg width="35" height="35" viewBox="0 0 35 35" fill="none" xmlns="http://www.w3.org/2000/svg">
<g clip-path="url(#clip0_425_27)">
<path d="M29.9002 5.08622C26.61 1.80823 22.235 0.00199997 17.5737 0C7.96846 0 0.151732 7.77985 0.147886 17.3424C0.146767 20.3991 0.948973 23.3829 2.47375 26.013L0.00158691 35L9.23921 32.5884C11.7844 33.9704 14.65 34.6986 17.5662 34.6997H17.5736H17.5737C27.1774 34.6997 34.9953 26.9185 34.9994 17.3564C35.001 12.722 33.1899 8.36444 29.9002 5.08622V5.08622ZM17.5737 31.7705H17.568C14.9687 31.7692 12.4197 31.0744 10.1963 29.7609L9.6672 29.4486L4.1854 30.8795L5.64897 25.5603L5.30423 25.0149C3.85429 22.7197 3.08885 20.0671 3.08994 17.3435C3.09312 9.39543 9.59009 2.92931 17.5792 2.92931C21.4479 2.93091 25.0841 4.43226 27.8188 7.15682C30.5533 9.88136 32.0582 13.5033 32.0571 17.3552C32.0537 25.3035 25.5565 31.7705 17.5737 31.7705V31.7705Z" fill="#E0E0E0"/>
<path d="M0.801086 34.0028L3.16032 25.4264C1.70482 22.9163 0.939408 20.0686 0.940326 17.1521C0.944143 8.02658 8.40388 0.602325 17.5696 0.602325C22.0181 0.604325 26.1933 2.32796 29.3325 5.45629C32.4724 8.5846 34.2006 12.7428 34.1988 17.1651C34.1949 26.2908 26.7347 33.7157 17.5702 33.7157C17.5696 33.7157 17.5707 33.7157 17.5702 33.7157H17.5628C14.7798 33.7149 12.0453 33.0193 9.61657 31.7015L0.801086 34.0028V34.0028Z" fill="url(#paint0_linear_425_27)"/>
<path fill-rule="evenodd" clip-rule="evenodd" d="M13.2671 9.9797C12.9447 9.26608 12.6053 9.2518 12.2986 9.23931C12.0477 9.2286 11.7605 9.22926 11.4738 9.22926C11.1868 9.22926 10.7205 9.33663 10.3261 9.76542C9.93151 10.1942 8.81949 11.2308 8.81949 13.339C8.81949 15.4475 10.362 17.4847 10.577 17.7709C10.7922 18.0566 13.5546 22.5213 17.9293 24.2389C21.5651 25.6663 22.305 25.3824 23.0942 25.3109C23.8834 25.2395 25.6406 24.2746 25.9993 23.2739C26.3581 22.2735 26.3581 21.4159 26.2504 21.2367C26.1428 21.0581 25.8559 20.9509 25.4254 20.7367C24.9949 20.5224 22.879 19.4856 22.4844 19.3427C22.0898 19.1999 21.8028 19.1284 21.5158 19.5575C21.2289 19.986 20.4045 20.9509 20.1534 21.2367C19.9023 21.523 19.6512 21.5587 19.2207 21.3445C18.7902 21.1295 17.404 20.6775 15.7595 19.2177C14.48 18.082 13.6162 16.6793 13.3651 16.2503C13.114 15.8218 13.3382 15.5896 13.5541 15.376C13.7473 15.184 13.9846 14.8758 14.1998 14.6255C14.4146 14.3753 14.4863 14.1968 14.6298 13.911C14.7733 13.6249 14.7015 13.3747 14.5939 13.1604C14.4863 12.9461 13.6498 10.827 13.2671 9.9797V9.9797Z" fill="white"/>
<path d="M29.7573 5.03111C26.5049 1.79075 22.1801 0.00529392 17.5724 0.00326538C8.07742 0.00326538 0.350449 7.69378 0.346632 17.1465C0.345513 20.1682 1.1385 23.1177 2.64577 25.7176L0.202026 34.6014L9.33359 32.2175C11.8495 33.5836 14.6823 34.3034 17.565 34.3045H17.5723H17.5724C27.0658 34.3045 34.7939 26.6127 34.798 17.1604C34.7995 12.5792 33.0093 8.27169 29.7573 5.03111V5.03111ZM17.5724 31.4091H17.5668C14.9973 31.4077 12.4775 30.7209 10.2797 29.4225L9.75664 29.1138L4.33779 30.5283L5.78454 25.2701L5.44376 24.7311C4.01047 22.4621 3.25381 19.84 3.25493 17.1477C3.25806 9.29088 9.68042 2.899 17.5778 2.899C21.4022 2.90057 24.9965 4.38469 27.6999 7.07796C30.403 9.77124 31.8906 13.3515 31.8895 17.1593C31.8861 25.0163 25.4635 31.4091 17.5724 31.4091Z" fill="white"/>
</g>
<defs>
<linearGradient id="paint0_linear_425_27" x1="17.4999" y1="34.0028" x2="17.4999" y2="0.602381" gradientUnits="userSpaceOnUse">
<stop stop-color="#20B038"/>
<stop offset="1" stop-color="#60D66A"/>
</linearGradient>
<clipPath id="clip0_425_27">
<rect width="35" height="35" fill="white"/>
</clipPath>
</defs>
</svg>
