<svg width="172" height="80" viewBox="0 0 172 80" fill="none" xmlns="http://www.w3.org/2000/svg">
<path d="M141.593 73.6534C141.81 73.6534 142.047 73.6637 142.294 73.6946C142.356 73.7049 142.418 73.7152 142.48 73.7255C142.541 73.7255 142.603 73.7461 142.675 73.7564C142.799 73.777 142.933 73.8079 143.067 73.8492C143.613 73.9934 144.2 74.2304 144.798 74.5086C145.375 74.7662 145.962 75.0547 146.488 75.3226C147.013 75.5905 147.477 75.8481 147.807 76.0233C148.136 76.1984 148.332 76.3118 148.332 76.3118C148.332 76.3118 148.281 76.3324 148.178 76.3736C148.075 76.4045 147.93 76.4663 147.755 76.5179C147.384 76.6209 146.869 76.7549 146.282 76.8785C146.137 76.9094 145.983 76.9403 145.828 76.9609C145.674 76.9815 145.509 77.0022 145.354 77.0228C145.035 77.0537 144.705 77.0846 144.375 77.0949C143.726 77.1258 143.057 77.0434 142.49 76.8888C141.356 76.5797 140.584 75.879 140.11 75.302C139.625 74.7147 139.43 74.2304 139.43 74.2304C139.43 74.2304 139.821 73.9831 140.46 73.8285C140.779 73.7564 141.161 73.674 141.604 73.674L141.593 73.6534Z" fill="#ACACAD"/>
<path d="M139.852 69.1502C140.12 68.7277 140.47 68.3568 140.831 67.9961C141.006 67.821 141.202 67.6561 141.387 67.5016C141.48 67.4294 141.573 67.347 141.665 67.2852C141.758 67.213 141.84 67.1409 141.933 67.0688C142.284 66.8009 142.603 66.5845 142.83 66.4402C143.056 66.2857 143.201 66.193 143.201 66.193C143.201 66.193 143.201 66.399 143.19 66.7288C143.19 67.0688 143.149 67.5222 143.077 68.0477C143.005 68.5629 142.891 69.1502 142.727 69.7169C142.562 70.263 142.325 70.7988 142.047 71.2419C141.985 71.3552 141.902 71.4583 141.83 71.5613C141.799 71.6128 141.758 71.654 141.717 71.7056C141.676 71.7468 141.645 71.788 141.603 71.8292C141.439 71.9941 141.274 72.128 141.099 72.2517C140.934 72.3753 140.759 72.468 140.594 72.5505C140.429 72.6329 140.264 72.705 140.109 72.7463C139.491 72.9214 139.048 72.8905 139.048 72.8905C139.048 72.8905 138.976 72.365 139.048 71.6437C139.089 71.2831 139.151 70.8709 139.285 70.4485C139.316 70.3454 139.357 70.2321 139.398 70.1291C139.44 70.0157 139.481 69.9127 139.522 69.7993C139.615 69.5829 139.728 69.3666 139.862 69.1605L139.852 69.1502Z" fill="#ACACAD"/>
<path d="M148.62 70.3971C148.62 70.3971 148.713 70.3146 148.785 70.2528C148.93 70.1292 149.146 69.954 149.434 69.7994C149.579 69.717 149.733 69.6346 149.919 69.5624C150.094 69.4903 150.3 69.4285 150.496 69.3564C150.908 69.2327 151.402 69.1606 151.969 69.1709C152.258 69.1709 152.546 69.1915 152.855 69.2224C153.164 69.2533 153.484 69.2945 153.803 69.3461C154.123 69.3976 154.452 69.4594 154.762 69.5212C155.071 69.5831 155.38 69.6449 155.668 69.7067C156.245 69.8304 156.76 69.9437 157.121 70.0364C157.492 70.1292 157.708 70.1807 157.708 70.1807C157.708 70.1807 157.523 70.3146 157.193 70.5104C157.039 70.6135 156.843 70.7268 156.627 70.8504C156.523 70.9123 156.4 70.9844 156.276 71.0462C156.153 71.108 156.019 71.1699 155.885 71.242C155.617 71.3656 155.328 71.4996 155.029 71.6129C154.875 71.6748 154.731 71.7263 154.576 71.7881C154.504 71.819 154.421 71.8499 154.349 71.8705C154.267 71.8911 154.195 71.9118 154.112 71.9427C153.474 72.1178 152.835 72.2312 152.247 72.2312C151.052 72.2002 150.135 71.7469 149.507 71.3141C149.197 71.0977 148.95 70.8813 148.796 70.7165C148.631 70.5516 148.548 70.4486 148.548 70.4486C148.548 70.4486 148.569 70.428 148.61 70.3971H148.62Z" fill="#ACACAD"/>
<path d="M150.269 66.9145C150.125 67.3987 149.888 67.8006 149.63 68.1303C149.507 68.2952 149.362 68.4291 149.228 68.5425C149.084 68.6558 148.95 68.7589 148.816 68.8413C148.548 69.0062 148.301 69.1195 148.126 69.1813C148.044 69.2122 147.961 69.2328 147.91 69.2431C147.858 69.2535 147.827 69.2638 147.827 69.2638C147.827 69.2638 147.776 69.1401 147.703 68.934C147.631 68.728 147.549 68.4291 147.487 68.0582C147.353 67.3369 147.291 66.3787 147.57 65.4513C147.703 64.9773 147.93 64.5136 148.188 64.0912C148.435 63.6584 148.724 63.2463 148.991 62.9062C149.125 62.7414 149.249 62.5662 149.362 62.4322C149.476 62.288 149.579 62.1643 149.672 62.0613C149.847 61.8552 149.97 61.7419 149.97 61.7419C149.97 61.7419 150.032 61.9377 150.104 62.2571C150.187 62.5765 150.279 63.0402 150.352 63.5554C150.393 63.8233 150.424 64.1015 150.444 64.39C150.465 64.6682 150.465 64.9567 150.465 65.2555C150.465 65.544 150.444 65.8325 150.413 66.1211C150.372 66.3993 150.331 66.6775 150.249 66.9145H150.269Z" fill="#ACACAD"/>
<path d="M156.813 63.8853C156.916 63.7307 157.07 63.504 157.307 63.2774C157.534 63.0404 157.833 62.8034 158.204 62.5767C158.564 62.35 159.007 62.1439 159.564 61.9997C159.749 61.9482 159.945 61.9069 160.141 61.876C160.336 61.8348 160.543 61.8039 160.749 61.773C161.779 61.6184 162.954 61.5566 163.84 61.5051C164.736 61.4536 165.375 61.4433 165.375 61.4433C165.375 61.4433 165.159 61.7215 164.788 62.1233C164.427 62.5355 163.871 63.0404 163.253 63.5247C163.16 63.5968 163.057 63.6689 162.964 63.741C162.912 63.7822 162.861 63.8132 162.809 63.8544C162.758 63.8853 162.706 63.9162 162.655 63.9574C162.449 64.0914 162.232 64.215 162.016 64.3387C161.8 64.452 161.583 64.5654 161.367 64.6478C161.15 64.7405 160.934 64.8229 160.718 64.8745C159.564 65.163 158.554 64.9878 157.833 64.7302C157.101 64.4726 156.658 64.1532 156.658 64.1532C156.658 64.1532 156.71 64.0502 156.813 63.8956V63.8853Z" fill="#ACACAD"/>
<path d="M156.431 62.5354C156.225 62.7724 156.019 62.9475 155.864 63.0506C155.709 63.1536 155.606 63.2051 155.606 63.2051C155.606 63.2051 155.256 62.793 154.926 62.1438C154.586 61.4844 154.246 60.5776 154.257 59.6091C154.257 59.2484 154.288 58.8775 154.36 58.5271C154.391 58.352 154.442 58.1768 154.494 58.0016C154.545 57.8368 154.586 57.6513 154.638 57.4864C154.731 57.1979 154.823 56.9197 154.926 56.6724C154.957 56.6106 154.978 56.5488 154.999 56.487C155.029 56.4251 155.04 56.3736 155.071 56.3118C155.112 56.1984 155.153 56.0954 155.194 56.0027C155.359 55.6214 155.483 55.3947 155.483 55.3947C155.483 55.3947 155.802 55.8687 156.173 56.6003C156.266 56.7858 156.359 56.9712 156.462 57.1876C156.513 57.2907 156.554 57.404 156.606 57.507C156.657 57.6101 156.688 57.7234 156.74 57.8368C156.905 58.2798 157.049 58.7641 157.152 59.2381C157.193 59.4236 157.224 59.5987 157.245 59.7739C157.265 59.9491 157.276 60.1242 157.276 60.2891C157.276 60.8043 157.173 61.2474 157.018 61.6286C156.853 61.9996 156.637 62.2984 156.431 62.5354Z" fill="#ACACAD"/>
<path d="M164.519 56.1472C164.293 56.1575 164.087 56.1472 163.891 56.1472C163.118 56.0956 162.603 55.9102 162.603 55.9102C162.603 55.9102 162.624 55.7968 162.685 55.6217C162.716 55.5289 162.758 55.4259 162.809 55.3022C162.85 55.1786 162.912 55.0446 162.984 54.9004C163.139 54.6119 163.345 54.3027 163.644 53.9833C163.716 53.9112 163.788 53.8391 163.87 53.7463C163.953 53.6639 164.035 53.5918 164.128 53.5093C164.313 53.3548 164.53 53.2002 164.767 53.056C165.004 52.9117 165.272 52.7778 165.56 52.6438C165.828 52.5099 166.127 52.3862 166.415 52.2626C167.003 52.0153 167.631 51.7989 168.198 51.6031C168.754 51.4073 169.239 51.2425 169.599 51.1291C169.96 51.0158 170.176 50.9437 170.176 50.9437C170.176 50.9437 170.094 51.1497 169.939 51.4898C169.867 51.6546 169.764 51.8607 169.651 52.0771C169.527 52.2935 169.393 52.5305 169.239 52.7778C169.084 53.0251 168.909 53.2827 168.734 53.5403C168.693 53.6021 168.641 53.6639 168.59 53.7257C168.538 53.7876 168.497 53.8494 168.435 53.9112C168.332 54.0348 168.229 54.1585 168.116 54.2718C167.899 54.5088 167.672 54.7355 167.435 54.9416C167.322 55.0446 167.198 55.1477 167.075 55.2301C166.951 55.3125 166.828 55.395 166.694 55.4774C166.189 55.7762 165.674 55.9411 165.2 56.0338C164.963 56.0853 164.726 56.1059 164.509 56.1162L164.519 56.1472Z" fill="#ACACAD"/>
<path d="M162.212 53.3957C162.16 53.7975 162.047 54.1376 161.923 54.4261C161.861 54.5703 161.789 54.694 161.727 54.797C161.666 54.9103 161.583 54.9928 161.532 55.0649C161.418 55.2092 161.326 55.2813 161.326 55.2813C161.326 55.2813 160.872 54.9825 160.367 54.4467C160.244 54.3127 160.11 54.1685 159.986 54.0036C159.852 53.8387 159.718 53.6636 159.594 53.4678C159.347 53.0865 159.131 52.6641 158.987 52.2004C158.945 52.0871 158.925 51.9634 158.894 51.8398C158.863 51.7161 158.842 51.5925 158.822 51.4688C158.78 51.2215 158.76 50.9742 158.75 50.7269C158.75 50.2324 158.729 49.7481 158.77 49.3153C158.791 49.0989 158.811 48.9032 158.832 48.7177C158.842 48.5322 158.863 48.3777 158.883 48.2437C158.914 47.9758 158.945 47.8212 158.945 47.8212C158.945 47.8212 159.1 47.9552 159.347 48.1922C159.594 48.4292 159.934 48.7589 160.295 49.1608C160.645 49.5626 161.006 50.0263 161.326 50.5209C161.49 50.7682 161.635 51.0258 161.769 51.2834C161.892 51.5307 161.995 51.7883 162.067 52.0355C162.14 52.2828 162.181 52.5198 162.212 52.7465C162.222 52.8599 162.232 52.9732 162.232 53.0763C162.232 53.1278 162.232 53.1793 162.232 53.2308C162.232 53.2823 162.222 53.3338 162.212 53.3854V53.3957Z" fill="#ACACAD"/>
<path d="M169.022 45.9255C168.806 46.0801 168.579 46.2038 168.363 46.3171C167.92 46.5335 167.497 46.6571 167.116 46.7396C166.364 46.8941 165.818 46.8529 165.818 46.8529C165.818 46.8529 165.756 46.4098 165.9 45.7813C165.931 45.6267 165.993 45.4619 166.045 45.2764C166.096 45.1012 166.168 44.9158 166.271 44.72C166.364 44.5345 166.477 44.3284 166.622 44.1327C166.694 44.0296 166.766 43.9369 166.848 43.8338C166.89 43.7823 166.931 43.7308 166.982 43.6793C167.023 43.6278 167.065 43.5763 167.116 43.535C167.858 42.7313 169.053 41.9173 170.001 41.2476C170.486 40.9178 170.918 40.6293 171.227 40.4232C171.547 40.2172 171.743 40.1038 171.743 40.1038C171.743 40.1038 171.712 40.3305 171.65 40.6911C171.588 41.0518 171.495 41.5567 171.341 42.1131C171.176 42.6695 170.949 43.2774 170.681 43.8545C170.62 43.9987 170.537 44.143 170.455 44.2769C170.372 44.4109 170.29 44.5448 170.207 44.6788C170.032 44.9364 169.847 45.1734 169.651 45.3794C169.445 45.5855 169.249 45.771 169.022 45.9255Z" fill="#ACACAD"/>
<path d="M164.417 46.5848C164.417 46.5848 163.891 46.4096 163.252 46.0283C162.922 45.8326 162.572 45.5853 162.232 45.2865C162.067 45.1319 161.902 44.9773 161.748 44.7919C161.583 44.6167 161.428 44.4209 161.294 44.2148C161.16 44.0088 161.037 43.7821 160.934 43.5554C160.831 43.3287 160.759 43.0917 160.666 42.8547C160.491 42.3807 160.377 41.9068 160.295 41.4843C160.192 41.0618 160.13 40.6909 160.089 40.423C160.058 40.1551 160.048 39.9902 160.048 39.9902C160.048 39.9902 160.233 40.083 160.532 40.2375C160.831 40.4024 161.243 40.6394 161.707 40.9279C162.16 41.2267 162.665 41.5873 163.098 41.9789C163.541 42.3704 163.943 42.8032 164.231 43.2463C164.386 43.4627 164.478 43.679 164.561 43.8954C164.643 44.1118 164.695 44.3179 164.736 44.5137C164.777 44.7094 164.787 44.9052 164.798 45.0804C164.798 45.2555 164.777 45.4307 164.757 45.575C164.654 46.1829 164.427 46.5641 164.427 46.5641L164.417 46.5848Z" fill="#ACACAD"/>
<path d="M170.218 32.4068C170.187 32.6438 170.135 32.8808 170.084 33.1178C169.97 33.5815 169.847 34.0246 169.63 34.4058C169.352 34.921 169.022 35.3229 168.662 35.6423C168.301 35.9617 167.941 36.1987 167.59 36.3739C166.9 36.7242 166.364 36.8272 166.364 36.8272C166.364 36.8272 166.323 36.7242 166.271 36.5387C166.23 36.3533 166.158 36.0957 166.127 35.7762C166.096 35.4568 166.106 35.0859 166.189 34.6634C166.261 34.2513 166.395 33.7876 166.653 33.3033C166.735 33.1384 166.838 32.9736 166.941 32.8087C166.993 32.7263 167.044 32.6438 167.106 32.5511C167.157 32.4687 167.219 32.3759 167.271 32.2935C167.559 31.871 167.879 31.4383 168.208 31.0364C168.528 30.6243 168.858 30.2327 169.136 29.903C169.692 29.2332 170.115 28.7593 170.115 28.7593C170.115 28.7593 170.177 29.0993 170.249 29.6351C170.29 29.903 170.3 30.2224 170.31 30.5727C170.31 30.9231 170.31 31.294 170.31 31.6856C170.31 31.9226 170.269 32.1596 170.238 32.4068H170.218Z" fill="#ACACAD"/>
<path d="M161.264 35.5186C161.192 35.4568 161.13 35.395 161.068 35.3331C161.006 35.2713 160.934 35.1992 160.872 35.1374C160.738 35.0034 160.615 34.8592 160.501 34.7149C160.388 34.5706 160.285 34.4161 160.182 34.2718C160.079 34.107 159.976 33.9627 159.883 33.8185C159.718 33.5609 159.574 33.3033 159.45 33.0663C159.389 32.9426 159.327 32.8293 159.275 32.7262C159.224 32.6129 159.172 32.5202 159.121 32.4274C158.935 32.0565 158.842 31.8195 158.842 31.8195C158.842 31.8195 159.419 31.9122 160.233 32.1286C160.429 32.1801 160.656 32.242 160.872 32.3141C161.089 32.3862 161.315 32.4686 161.552 32.5614C162.016 32.7365 162.48 32.9529 162.912 33.2002C163.253 33.3857 163.541 33.6021 163.799 33.8185C164.19 34.1585 164.479 34.5294 164.664 34.9004C164.839 35.261 164.932 35.6216 164.973 35.9205C165.014 36.2296 165.025 36.4872 164.994 36.6726C164.973 36.8581 164.942 36.9612 164.942 36.9612C164.942 36.9612 164.396 36.9302 163.675 36.7345C162.954 36.5387 162.016 36.1678 161.274 35.5186H161.264Z" fill="#ACACAD"/>
<path d="M165.838 25.3177C165.581 25.7195 165.292 26.0596 165.014 26.3172C164.458 26.8324 163.973 27.0797 163.973 27.0797C163.973 27.0797 163.901 26.9869 163.798 26.8324C163.695 26.6675 163.571 26.4305 163.448 26.1317C163.324 25.8329 163.221 25.4722 163.17 25.0498C163.149 24.8437 163.149 24.617 163.149 24.38C163.149 24.143 163.17 23.8957 163.221 23.6278C163.273 23.3599 163.345 23.0817 163.427 22.7932C163.468 22.649 163.52 22.5047 163.571 22.3502C163.623 22.2059 163.664 22.0616 163.716 21.9071C163.922 21.3198 164.159 20.7324 164.385 20.1966C164.499 19.9287 164.602 19.6814 164.705 19.4548C164.798 19.2281 164.89 19.0323 164.962 18.8674C165.107 18.5274 165.199 18.3316 165.199 18.3316C165.199 18.3316 165.313 18.5274 165.467 18.8674C165.55 19.0323 165.632 19.2384 165.725 19.4651C165.818 19.702 165.91 19.9596 165.993 20.2275C166.034 20.3615 166.086 20.5058 166.127 20.65C166.168 20.7943 166.209 20.9385 166.24 21.1034C166.302 21.4125 166.364 21.7216 166.405 22.041C166.446 22.3605 166.477 22.6696 166.477 22.9684C166.477 23.2775 166.446 23.5763 166.395 23.8545C166.281 24.4109 166.086 24.8952 165.838 25.2971V25.3177Z" fill="#ACACAD"/>
<path d="M158.038 26.8217C157.822 26.6877 157.605 26.5332 157.399 26.3786C157.204 26.224 157.018 26.0592 156.833 25.8943C156.658 25.7295 156.472 25.5749 156.317 25.4203C156.163 25.2658 156.019 25.1112 155.895 24.9773C155.833 24.9051 155.771 24.8433 155.72 24.7815C155.668 24.7197 155.617 24.6681 155.565 24.6166C155.38 24.4106 155.277 24.2869 155.277 24.2869C155.277 24.2869 155.483 24.2663 155.833 24.2354C156.184 24.2148 156.668 24.1839 157.214 24.2045C157.75 24.2251 158.368 24.2766 158.966 24.3693C159.12 24.4002 159.264 24.4209 159.419 24.4518C159.563 24.4827 159.707 24.5239 159.841 24.5651C160.12 24.6475 160.388 24.7403 160.625 24.8536C160.862 24.967 161.078 25.0906 161.274 25.2246C161.469 25.3585 161.624 25.5131 161.768 25.6573C162.046 25.9561 162.242 26.2756 162.376 26.5538C162.51 26.832 162.562 27.0896 162.593 27.2647C162.624 27.4502 162.634 27.5533 162.634 27.5533C162.634 27.5533 162.098 27.6769 161.346 27.6769C160.965 27.6769 160.532 27.6563 160.089 27.5739C159.625 27.5017 159.151 27.3678 158.687 27.1617C158.461 27.0587 158.244 26.935 158.028 26.7908L158.038 26.8217Z" fill="#ACACAD"/>
<path d="M160.429 16.5384C160.295 16.9918 160.11 17.3834 159.914 17.7131C159.533 18.3519 159.131 18.7126 159.131 18.7126C159.131 18.7126 158.739 18.455 158.348 17.9398C158.245 17.8058 158.152 17.6616 158.059 17.4967C157.966 17.3422 157.863 17.1567 157.781 16.9712C157.616 16.5797 157.492 16.116 157.441 15.5699C157.379 15.0341 157.389 14.4261 157.441 13.7976C157.492 13.1691 157.544 12.5508 157.616 11.9738C157.688 11.4071 157.76 10.9022 157.812 10.5416C157.874 10.1809 157.905 9.96454 157.905 9.96454C157.905 9.96454 157.946 10.0058 158.018 10.0779C158.08 10.1603 158.183 10.2737 158.306 10.4179C158.543 10.7064 158.873 11.1186 159.203 11.5926C159.522 12.0871 159.842 12.6539 160.099 13.2309C160.347 13.8182 160.522 14.4261 160.584 14.9929C160.594 15.1371 160.604 15.2711 160.604 15.405C160.604 15.539 160.594 15.6729 160.584 15.8069C160.553 16.0645 160.501 16.3118 160.439 16.5384H160.429Z" fill="#ACACAD"/>
<path d="M153.329 20.0006C153.206 19.9594 153.092 19.9182 152.969 19.8667C152.907 19.8461 152.856 19.8255 152.794 19.7945C152.732 19.7739 152.67 19.743 152.608 19.7224C152.124 19.5266 151.691 19.2897 151.31 19.0733C150.918 18.8672 150.589 18.6611 150.362 18.5066C150.249 18.4241 150.156 18.3623 150.094 18.3211C150.032 18.2799 149.991 18.2593 149.991 18.2593C149.991 18.2593 150.043 18.2387 150.135 18.2077C150.228 18.1768 150.362 18.1253 150.517 18.0738C150.836 17.9707 151.3 17.8265 151.835 17.7028C152.103 17.641 152.382 17.5792 152.68 17.5277C152.825 17.5071 152.979 17.4762 153.123 17.4556C153.268 17.4349 153.422 17.4246 153.566 17.4143C154.164 17.3628 154.772 17.3628 155.308 17.4556C155.833 17.5483 156.266 17.7338 156.627 17.9398C156.812 18.0429 156.967 18.1562 157.111 18.2799C157.245 18.4035 157.358 18.5272 157.461 18.6508C157.863 19.1351 158.007 19.5473 158.007 19.5473C158.007 19.5473 157.523 19.8048 156.792 20.0109C156.431 20.114 155.998 20.2067 155.535 20.2479C155.071 20.2891 154.597 20.2788 154.082 20.2067C153.824 20.1655 153.577 20.1037 153.329 20.0212V20.0006Z" fill="#ACACAD"/>
<path d="M151.928 11.3038C151.835 11.5099 151.763 11.6232 151.763 11.6232C151.763 11.6232 151.732 11.6232 151.681 11.5923C151.629 11.5717 151.557 11.5408 151.475 11.4996C151.3 11.4171 151.052 11.2832 150.795 11.0874C150.279 10.6855 149.641 10.0879 149.239 9.05753C149.105 8.7175 148.971 8.34656 148.868 7.95501C148.734 7.46042 148.621 6.93492 148.528 6.43002C148.425 5.93544 148.332 5.45115 148.27 5.01838C148.126 4.16316 148.054 3.55523 148.054 3.54492C148.054 3.54492 148.363 3.73039 148.816 4.04981C149.043 4.20437 149.301 4.40015 149.589 4.61653C149.857 4.84322 150.146 5.10082 150.434 5.37902C150.609 5.54389 150.774 5.71905 150.939 5.90452C150.98 5.94574 151.021 5.99726 151.063 6.03847C151.104 6.07969 151.135 6.13121 151.176 6.18273C151.248 6.27546 151.32 6.3785 151.392 6.47124C151.681 6.86279 151.918 7.26464 152.083 7.6665C152.196 7.92409 152.268 8.2023 152.309 8.4496C152.351 8.70719 152.381 8.95449 152.381 9.19148C152.392 9.66546 152.32 10.0879 152.227 10.4486C152.134 10.8092 152.021 11.0977 151.928 11.3038Z" fill="#ACACAD"/>
<path d="M145.097 14.2409C144.788 14.179 144.499 14.1069 144.231 14.0348C143.963 13.973 143.716 13.9111 143.51 13.8493C143.108 13.7257 142.851 13.6329 142.851 13.6329C142.851 13.6329 143.314 13.2826 144.025 12.8601C144.376 12.6438 144.798 12.4171 145.251 12.2007C145.694 11.9946 146.168 11.8091 146.653 11.6649C147.024 11.5515 147.384 11.4691 147.735 11.4382C148.786 11.3455 149.62 11.6443 150.146 12.0152C150.414 12.1904 150.609 12.3759 150.733 12.4995C150.795 12.5613 150.846 12.6232 150.877 12.6644C150.908 12.7056 150.919 12.7262 150.919 12.7262C150.919 12.7262 150.826 12.8189 150.651 12.9632C150.475 13.1074 150.218 13.2929 149.888 13.4887C149.569 13.6845 149.177 13.8905 148.755 14.0554C148.538 14.1378 148.312 14.21 148.075 14.2615C147.838 14.3233 147.601 14.3645 147.343 14.3954C146.591 14.4882 145.818 14.3645 145.097 14.2512V14.2409Z" fill="#ACACAD"/>
<path d="M134.061 74.4466C134.268 74.426 134.515 74.3951 134.803 74.3539C134.948 74.3332 135.102 74.3229 135.257 74.292C135.411 74.2611 135.586 74.2302 135.751 74.1993C136.102 74.1375 136.473 74.0756 136.874 74.0035C137.266 73.9108 137.688 73.818 138.121 73.7253C138.338 73.6738 138.564 73.6326 138.781 73.5707C138.997 73.5089 139.224 73.4471 139.44 73.3853C139.883 73.2616 140.347 73.1483 140.79 72.9937C142.593 72.4579 144.324 71.7057 145.592 71.1081C145.901 70.9535 146.199 70.8093 146.447 70.6856C146.581 70.6238 146.694 70.562 146.807 70.5105C146.921 70.459 147.013 70.3971 147.106 70.3456C147.467 70.1498 147.663 70.0365 147.663 70.0365C147.663 70.0365 147.869 69.9232 148.229 69.7274C148.58 69.5213 149.074 69.2019 149.672 68.8412C150.836 68.0684 152.372 66.9968 153.763 65.7707C155.164 64.5548 156.452 63.2153 157.359 62.1746C157.482 62.0509 157.575 61.917 157.678 61.7934C157.781 61.6697 157.874 61.5564 157.956 61.443C158.131 61.2266 158.286 61.0412 158.42 60.8763C158.554 60.7217 158.636 60.5878 158.698 60.5054C158.76 60.4126 158.801 60.3714 158.801 60.3714C158.801 60.3714 158.935 60.1859 159.172 59.8665C159.285 59.7017 159.44 59.5162 159.595 59.2792C159.749 59.0422 159.924 58.7846 160.12 58.4961C160.213 58.3518 160.316 58.2076 160.419 58.053C160.522 57.8985 160.615 57.7336 160.718 57.5584C160.924 57.2184 161.13 56.8578 161.357 56.4971C161.552 56.1159 161.769 55.7243 161.975 55.3328C162.026 55.2297 162.078 55.137 162.14 55.034C162.191 54.9309 162.232 54.8279 162.284 54.7248C162.377 54.5188 162.48 54.3127 162.572 54.1066C163.335 52.4477 163.974 50.7269 164.334 49.408C164.386 49.2432 164.427 49.0886 164.479 48.934C164.52 48.7898 164.571 48.6455 164.592 48.5116C164.654 48.2437 164.716 48.0067 164.757 47.8109C164.85 47.4194 164.901 47.203 164.901 47.203C164.901 47.203 164.911 47.1515 164.942 47.0484C164.963 46.9454 164.994 46.7908 165.025 46.595C165.066 46.3993 165.107 46.1623 165.148 45.8944C165.2 45.6265 165.272 45.3174 165.303 44.9773C165.344 44.6373 165.396 44.2767 165.447 43.8851C165.458 43.7924 165.478 43.6893 165.488 43.5966C165.499 43.4936 165.509 43.4008 165.519 43.2875C165.53 43.0814 165.55 42.8753 165.571 42.6589C165.664 41.814 165.664 40.897 165.684 39.9902C165.653 39.0835 165.653 38.1767 165.571 37.3215C165.561 37.1154 165.54 36.899 165.519 36.693C165.519 36.5899 165.509 36.4869 165.488 36.3941C165.478 36.2911 165.458 36.1984 165.447 36.0953C165.396 35.7141 165.344 35.3431 165.303 35.0031C165.262 34.6631 165.2 34.3643 165.148 34.0861C165.097 33.8182 165.056 33.5812 165.025 33.3854C164.984 33.1896 164.963 33.0351 164.942 32.932C164.911 32.829 164.901 32.7775 164.901 32.7775C164.901 32.7775 164.85 32.5611 164.757 32.1695C164.716 31.9738 164.654 31.7368 164.592 31.4689C164.561 31.3349 164.52 31.1907 164.479 31.0464C164.437 30.8918 164.386 30.7373 164.334 30.5724C163.974 29.2535 163.335 27.5431 162.572 25.8738C162.469 25.6677 162.377 25.4617 162.284 25.2556C162.232 25.1525 162.191 25.0495 162.14 24.9465C162.088 24.8434 162.037 24.7507 161.975 24.6477C161.758 24.2458 161.552 23.8543 161.357 23.4833C161.14 23.1124 160.924 22.7517 160.718 22.422C160.615 22.2571 160.522 22.082 160.419 21.9274C160.316 21.7729 160.213 21.6286 160.12 21.4843C159.935 21.1958 159.749 20.9382 159.595 20.7012C159.44 20.4643 159.285 20.2788 159.172 20.1139C158.935 19.7842 158.801 19.609 158.801 19.609C158.801 19.609 158.76 19.5575 158.698 19.4751C158.636 19.3926 158.544 19.2587 158.42 19.1041C158.296 18.9496 158.131 18.7538 157.956 18.5374C157.864 18.4241 157.771 18.3107 157.678 18.1871C157.575 18.0634 157.472 17.9398 157.359 17.8058C156.452 16.7651 155.164 15.4256 153.763 14.2098C152.361 12.9836 150.836 11.912 149.672 11.1392C149.074 10.7786 148.58 10.4591 148.229 10.2531C147.869 10.0573 147.663 9.94394 147.663 9.94394C147.663 9.94394 147.457 9.83059 147.106 9.63482C147.013 9.5833 146.921 9.53178 146.807 9.46996C146.694 9.41844 146.581 9.35661 146.447 9.29479C146.364 9.25357 146.272 9.21236 146.179 9.16084H146.158C145.932 9.18145 145.612 9.19175 145.231 9.16084C144.468 9.12993 143.479 8.96506 142.614 8.49108C142.16 8.2644 141.738 7.94497 141.367 7.60494C141.192 7.42978 140.996 7.26491 140.821 7.08975C140.646 6.92488 140.491 6.74972 140.347 6.58485C140.069 6.25513 139.811 5.96662 139.646 5.75024C139.481 5.53385 139.389 5.3999 139.389 5.3999C139.389 5.3999 139.595 5.3999 139.945 5.3896C140.295 5.3896 140.78 5.3896 141.326 5.44112C141.46 5.45142 141.604 5.46172 141.748 5.48233C141.892 5.50294 142.037 5.52355 142.181 5.54416C142.469 5.58537 142.768 5.6472 143.057 5.70902C143.644 5.85327 144.231 6.02844 144.685 6.28604C145.148 6.53333 145.509 6.84245 145.777 7.15157C146.035 7.47099 146.199 7.79041 146.323 8.08923C146.436 8.37774 146.488 8.63534 146.509 8.8105C146.509 8.84142 146.509 8.88263 146.509 8.91354C146.54 8.93415 146.581 8.94446 146.612 8.96506C146.735 9.02689 146.859 9.08871 146.972 9.14023C147.086 9.20205 147.178 9.25357 147.271 9.30509C147.632 9.50087 147.838 9.62452 147.838 9.62452C147.838 9.62452 148.044 9.73786 148.405 9.93363C148.755 10.1397 149.26 10.4591 149.857 10.8301C151.032 11.6029 152.578 12.6951 153.989 13.9316C155.401 15.168 156.699 16.5075 157.627 17.5689C157.75 17.6925 157.843 17.8264 157.946 17.9501C158.049 18.0737 158.142 18.1871 158.234 18.3004C158.42 18.5168 158.575 18.7126 158.698 18.8671C158.832 19.0217 158.915 19.1557 158.987 19.2381C159.048 19.3205 159.09 19.372 159.09 19.372C159.09 19.372 159.224 19.5575 159.471 19.8872C159.584 20.0521 159.739 20.2479 159.904 20.4849C160.058 20.7219 160.233 20.9898 160.429 21.2783C160.532 21.4225 160.625 21.5771 160.728 21.7316C160.831 21.8862 160.924 22.0614 161.027 22.2262C161.233 22.5663 161.449 22.9269 161.666 23.2978C161.872 23.6791 162.078 24.0706 162.294 24.4828C162.346 24.5858 162.397 24.6889 162.459 24.7816C162.511 24.8846 162.552 24.9877 162.603 25.0907C162.706 25.2968 162.799 25.5132 162.902 25.7193C163.675 27.3988 164.324 29.1299 164.685 30.4591C164.736 30.6239 164.777 30.7785 164.829 30.9331C164.87 31.0876 164.922 31.2216 164.953 31.3658C165.014 31.6337 165.076 31.881 165.118 32.0768C165.21 32.4683 165.272 32.695 165.272 32.695C165.272 32.695 165.282 32.7569 165.313 32.8599C165.344 32.9629 165.365 33.1175 165.406 33.3236C165.437 33.5193 165.488 33.7666 165.54 34.0345C165.591 34.3127 165.653 34.6219 165.695 34.9619C165.736 35.3019 165.787 35.6729 165.839 36.0644C165.849 36.1675 165.87 36.2602 165.88 36.3632C165.89 36.4663 165.901 36.5693 165.911 36.6723C165.921 36.8784 165.942 37.0845 165.962 37.3112C166.055 38.1664 166.055 39.0835 166.086 40.0005C166.055 40.9176 166.055 41.8346 165.962 42.6898C165.942 42.9062 165.932 43.1123 165.911 43.3184C165.901 43.4214 165.901 43.5245 165.88 43.6172C165.87 43.7202 165.849 43.8233 165.839 43.916C165.787 44.3076 165.736 44.6785 165.695 45.0185C165.653 45.3586 165.581 45.6677 165.54 45.9459C165.488 46.2241 165.447 46.4611 165.406 46.6569C165.365 46.8526 165.344 47.0072 165.313 47.1205C165.293 47.2236 165.272 47.2854 165.272 47.2854C165.272 47.2854 165.221 47.5121 165.118 47.9036C165.076 48.0994 165.014 48.3364 164.953 48.6146C164.922 48.7486 164.881 48.8928 164.829 49.0474C164.788 49.2019 164.736 49.3565 164.685 49.5214C164.324 50.8506 163.685 52.5816 162.902 54.2612C162.809 54.4673 162.706 54.6836 162.603 54.8897C162.552 54.9927 162.511 55.0958 162.459 55.1988C162.408 55.3019 162.346 55.4049 162.294 55.4976C162.078 55.8995 161.872 56.291 161.666 56.6826C161.449 57.0535 161.233 57.4142 161.027 57.7542C160.924 57.9191 160.831 58.0942 160.728 58.2488C160.625 58.4034 160.522 58.5579 160.429 58.7022C160.233 58.9907 160.058 59.2586 159.904 59.4956C159.749 59.7326 159.595 59.9283 159.471 60.0932C159.224 60.4229 159.09 60.6084 159.09 60.6084C159.09 60.6084 159.048 60.6599 158.987 60.7423C158.925 60.8248 158.832 60.9587 158.698 61.1133C158.575 61.2679 158.41 61.4636 158.234 61.68C158.142 61.7934 158.049 61.9067 157.946 62.0303C157.843 62.154 157.75 62.2879 157.627 62.4116C156.709 63.4729 155.411 64.8124 153.989 66.0489C152.578 67.2854 151.032 68.3673 149.857 69.1504C149.249 69.5213 148.755 69.8407 148.405 70.0468C148.044 70.2426 147.838 70.3559 147.838 70.3559C147.838 70.3559 147.632 70.4693 147.271 70.6753C147.178 70.7269 147.075 70.7784 146.972 70.8402C146.859 70.8917 146.735 70.9536 146.612 71.0154C146.354 71.139 146.066 71.2833 145.746 71.4481C144.458 72.0458 142.717 72.798 140.893 73.3441C140.44 73.4986 139.986 73.612 139.533 73.7356C139.306 73.7974 139.079 73.8593 138.863 73.9211C138.647 73.9829 138.42 74.0241 138.204 74.0756C137.771 74.1684 137.348 74.2611 136.947 74.3539C136.545 74.426 136.163 74.4878 135.813 74.5496C135.638 74.5805 135.473 74.6115 135.308 74.6321C135.143 74.663 134.989 74.6733 134.845 74.6939C134.556 74.7248 134.309 74.7557 134.092 74.7866C133.68 74.8381 133.443 74.869 133.443 74.869L133.402 74.5187C133.402 74.5187 133.639 74.4878 134.051 74.4363L134.061 74.4466Z" fill="#ACACAD"/>
<path d="M31.0383 73.6534C30.8219 73.6534 30.5849 73.6637 30.3376 73.6946C30.2758 73.7049 30.2139 73.7152 30.1521 73.7255C30.0903 73.7255 30.0285 73.7461 29.9564 73.7564C29.8327 73.777 29.6988 73.8079 29.5648 73.8492C29.0187 73.9934 28.4314 74.2304 27.8337 74.5086C27.2567 74.7662 26.6694 75.0547 26.1439 75.3226C25.6184 75.5905 25.1547 75.8481 24.825 76.0233C24.4953 76.1984 24.2995 76.3118 24.2995 76.3118C24.2995 76.3118 24.351 76.3324 24.4541 76.3736C24.5571 76.4045 24.7013 76.4663 24.8765 76.5179C25.2475 76.6209 25.7626 76.7549 26.35 76.8785C26.4942 76.9094 26.6488 76.9403 26.8033 76.9609C26.9579 76.9815 27.1228 77.0022 27.2773 77.0228C27.5968 77.0537 27.9265 77.0846 28.2562 77.0949C28.9053 77.1258 29.5751 77.0434 30.1418 76.8888C31.2753 76.5797 32.048 75.879 32.522 75.302C33.0063 74.7147 33.2021 74.2304 33.2021 74.2304C33.2021 74.2304 32.8105 73.9831 32.1717 73.8285C31.8523 73.7564 31.471 73.674 31.028 73.674L31.0383 73.6534Z" fill="#ACACAD"/>
<path d="M32.7799 69.1502C32.5119 68.7277 32.1616 68.3568 31.801 67.9961C31.6258 67.821 31.43 67.6561 31.2446 67.5016C31.1518 67.4294 31.0591 67.347 30.9664 67.2852C30.8736 67.213 30.7912 67.1409 30.6985 67.0688C30.3481 66.8009 30.0287 66.5845 29.802 66.4402C29.5753 66.2857 29.4311 66.193 29.4311 66.193C29.4311 66.193 29.4311 66.399 29.4414 66.7288C29.4414 67.0688 29.4826 67.5222 29.5547 68.0477C29.6268 68.5629 29.7402 69.1502 29.9051 69.7169C30.0699 70.263 30.3069 70.7988 30.5851 71.2419C30.6469 71.3552 30.7294 71.4583 30.8015 71.5613C30.8324 71.6128 30.8736 71.654 30.9148 71.7056C30.9561 71.7468 30.987 71.788 31.0282 71.8292C31.193 71.9941 31.3579 72.128 31.5331 72.2517C31.6979 72.3753 31.8731 72.468 32.038 72.5505C32.2028 72.6329 32.3677 72.705 32.5223 72.7463C33.1405 72.9214 33.5836 72.8905 33.5836 72.8905C33.5836 72.8905 33.6557 72.365 33.5836 71.6437C33.5423 71.2831 33.4805 70.8709 33.3466 70.4485C33.3157 70.3454 33.2744 70.2321 33.2332 70.1291C33.192 70.0157 33.1508 69.9127 33.1096 69.7993C33.0168 69.5829 32.9035 69.3666 32.7695 69.1605L32.7799 69.1502Z" fill="#ACACAD"/>
<path d="M24.0113 70.3971C24.0113 70.3971 23.9185 70.3146 23.8464 70.2528C23.7022 70.1292 23.4858 69.954 23.1973 69.7994C23.053 69.717 22.8985 69.6346 22.713 69.5624C22.5378 69.4903 22.3317 69.4285 22.136 69.3564C21.7238 69.2327 21.2292 69.1606 20.6625 69.1709C20.374 69.1709 20.0855 69.1915 19.7764 69.2224C19.4672 69.2533 19.1478 69.2945 18.8284 69.3461C18.509 69.3976 18.1793 69.4594 17.8701 69.5212C17.561 69.5831 17.2519 69.6449 16.9634 69.7067C16.3864 69.8304 15.8712 69.9437 15.5105 70.0364C15.1396 70.1292 14.9232 70.1807 14.9232 70.1807C14.9232 70.1807 15.1087 70.3146 15.4384 70.5104C15.593 70.6135 15.7887 70.7268 16.0051 70.8504C16.1082 70.9123 16.2318 70.9844 16.3555 71.0462C16.4791 71.108 16.6131 71.1699 16.747 71.242C17.0149 71.3656 17.3034 71.4996 17.6022 71.6129C17.7568 71.6748 17.901 71.7263 18.0556 71.7881C18.1277 71.819 18.2102 71.8499 18.2823 71.8705C18.3647 71.8911 18.4368 71.9118 18.5193 71.9427C19.1581 72.1178 19.797 72.2312 20.3843 72.2312C21.5795 72.2002 22.4966 71.7469 23.1251 71.3141C23.4343 71.0977 23.6816 70.8813 23.8361 70.7165C24.001 70.5516 24.0834 70.4486 24.0834 70.4486C24.0834 70.4486 24.0628 70.428 24.0216 70.3971H24.0113Z" fill="#ACACAD"/>
<path d="M22.3625 66.9145C22.5068 67.3987 22.7437 67.8006 23.0013 68.1303C23.125 68.2952 23.2693 68.4291 23.4032 68.5425C23.5475 68.6558 23.6814 68.7589 23.8154 68.8413C24.0833 69.0062 24.3306 69.1195 24.5057 69.1813C24.5882 69.2122 24.6706 69.2328 24.7221 69.2431C24.7736 69.2535 24.8045 69.2638 24.8045 69.2638C24.8045 69.2638 24.8561 69.1401 24.9282 68.934C25.0003 68.728 25.0827 68.4291 25.1446 68.0582C25.2785 67.3369 25.3403 66.3787 25.0621 65.4513C24.9282 64.9773 24.7015 64.5136 24.4439 64.0912C24.1966 63.6584 23.9081 63.2463 23.6402 62.9062C23.5062 62.7414 23.3826 62.5662 23.2693 62.4322C23.1559 62.288 23.0529 62.1643 22.9601 62.0613C22.785 61.8552 22.6613 61.7419 22.6613 61.7419C22.6613 61.7419 22.5995 61.9377 22.5274 62.2571C22.4449 62.5765 22.3522 63.0402 22.2801 63.5554C22.2389 63.8233 22.2079 64.1015 22.1873 64.39C22.1667 64.6682 22.1667 64.9567 22.1667 65.2555C22.1667 65.544 22.1873 65.8325 22.2183 66.1211C22.2595 66.3993 22.3007 66.6775 22.3831 66.9145H22.3625Z" fill="#ACACAD"/>
<path d="M15.8191 63.8853C15.7161 63.7307 15.5615 63.504 15.3245 63.2774C15.0978 63.0404 14.799 62.8034 14.4281 62.5767C14.0675 62.35 13.6244 62.1439 13.068 61.9997C12.8825 61.9482 12.6867 61.9069 12.4909 61.876C12.2952 61.8348 12.0891 61.8039 11.883 61.773C10.8526 61.6184 9.67798 61.5566 8.79185 61.5051C7.8954 61.4536 7.25656 61.4433 7.25656 61.4433C7.25656 61.4433 7.47294 61.7215 7.84388 62.1233C8.20452 62.5355 8.76093 63.0404 9.37917 63.5247C9.47191 63.5968 9.57495 63.6689 9.66768 63.741C9.7192 63.7822 9.77072 63.8132 9.82224 63.8544C9.87376 63.8853 9.92528 63.9162 9.9768 63.9574C10.1829 64.0914 10.3992 64.215 10.6156 64.3387C10.832 64.452 11.0484 64.5654 11.2648 64.6478C11.4812 64.7405 11.6975 64.8229 11.9139 64.8745C13.068 65.163 14.0778 64.9878 14.799 64.7302C15.5306 64.4726 15.9737 64.1532 15.9737 64.1532C15.9737 64.1532 15.9222 64.0502 15.8191 63.8956V63.8853Z" fill="#ACACAD"/>
<path d="M16.2009 62.5354C16.407 62.7724 16.6131 62.9475 16.7676 63.0506C16.9222 63.1536 17.0252 63.2051 17.0252 63.2051C17.0252 63.2051 17.3756 62.793 17.7053 62.1438C18.0453 61.4844 18.3853 60.5776 18.375 59.6091C18.375 59.2484 18.3441 58.8775 18.272 58.5271C18.2411 58.352 18.1896 58.1768 18.138 58.0016C18.0865 57.8368 18.0453 57.6513 17.9938 57.4864C17.9011 57.1979 17.8083 56.9197 17.7053 56.6724C17.6744 56.6106 17.6538 56.5488 17.6331 56.487C17.6022 56.4251 17.5919 56.3736 17.561 56.3118C17.5198 56.1984 17.4786 56.0954 17.4374 56.0027C17.2725 55.6214 17.1489 55.3947 17.1489 55.3947C17.1489 55.3947 16.8294 55.8687 16.4585 56.6003C16.3658 56.7858 16.273 56.9712 16.17 57.1876C16.1185 57.2907 16.0773 57.404 16.0257 57.507C15.9742 57.6101 15.9433 57.7234 15.8918 57.8368C15.7269 58.2798 15.5827 58.7641 15.4796 59.2381C15.4384 59.4236 15.4075 59.5987 15.3869 59.7739C15.3663 59.9491 15.356 60.1242 15.356 60.2891C15.356 60.8043 15.459 61.2474 15.6136 61.6286C15.7784 61.9996 15.9948 62.2984 16.2009 62.5354Z" fill="#ACACAD"/>
<path d="M8.11218 56.1472C8.33887 56.1575 8.54495 56.1472 8.74072 56.1472C9.51352 56.0956 10.0287 55.9102 10.0287 55.9102C10.0287 55.9102 10.0081 55.7968 9.94628 55.6217C9.91537 55.5289 9.87416 55.4259 9.82264 55.3022C9.78142 55.1786 9.7196 55.0446 9.64747 54.9004C9.49291 54.6119 9.28683 54.3027 8.98802 53.9833C8.91589 53.9112 8.84376 53.8391 8.76133 53.7463C8.6789 53.6639 8.59647 53.5918 8.50373 53.5093C8.31826 53.3548 8.10188 53.2002 7.86489 53.056C7.6279 52.9117 7.36 52.7778 7.07149 52.6438C6.80358 52.5099 6.50477 52.3862 6.21626 52.2626C5.62893 52.0153 5.00039 51.7989 4.43368 51.6031C3.87726 51.4073 3.39298 51.2425 3.03234 51.1291C2.6717 51.0158 2.45532 50.9437 2.45532 50.9437C2.45532 50.9437 2.53775 51.1497 2.69231 51.4898C2.76444 51.6546 2.86748 51.8607 2.98082 52.0771C3.10447 52.2935 3.23842 52.5305 3.39298 52.7778C3.54754 53.0251 3.72271 53.2827 3.89787 53.5403C3.93909 53.6021 3.99061 53.6639 4.04213 53.7257C4.09365 53.7876 4.13486 53.8494 4.19669 53.9112C4.29973 54.0348 4.40277 54.1585 4.51611 54.2718C4.73249 54.5088 4.95918 54.7355 5.19617 54.9416C5.30951 55.0446 5.43316 55.1477 5.55681 55.2301C5.68045 55.3125 5.8041 55.395 5.93805 55.4774C6.44295 55.7762 6.95814 55.9411 7.43212 56.0338C7.66911 56.0853 7.9061 56.1059 8.12249 56.1162L8.11218 56.1472Z" fill="#ACACAD"/>
<path d="M10.42 53.3957C10.4715 53.7975 10.5849 54.1376 10.7085 54.4261C10.7704 54.5703 10.8425 54.694 10.9043 54.797C10.9661 54.9103 11.0486 54.9928 11.1001 55.0649C11.2134 55.2092 11.3062 55.2813 11.3062 55.2813C11.3062 55.2813 11.7595 54.9825 12.2644 54.4467C12.3881 54.3127 12.522 54.1685 12.6457 54.0036C12.7796 53.8387 12.9136 53.6636 13.0372 53.4678C13.2845 53.0865 13.5009 52.6641 13.6452 52.2004C13.6864 52.0871 13.707 51.9634 13.7379 51.8398C13.7688 51.7161 13.7894 51.5925 13.81 51.4688C13.8512 51.2215 13.8718 50.9742 13.8821 50.7269C13.8821 50.2324 13.9027 49.7481 13.8615 49.3153C13.8409 49.0989 13.8203 48.9032 13.7997 48.7177C13.7894 48.5322 13.7688 48.3777 13.7482 48.2437C13.7173 47.9758 13.6864 47.8212 13.6864 47.8212C13.6864 47.8212 13.5318 47.9552 13.2845 48.1922C13.0372 48.4292 12.6972 48.7589 12.3366 49.1608C11.9862 49.5626 11.6256 50.0263 11.3062 50.5209C11.1413 50.7682 10.997 51.0258 10.8631 51.2834C10.7394 51.5307 10.6364 51.7883 10.5643 52.0355C10.4921 52.2828 10.4509 52.5198 10.42 52.7465C10.4097 52.8599 10.3994 52.9732 10.3994 53.0763C10.3994 53.1278 10.3994 53.1793 10.3994 53.2308C10.3994 53.2823 10.4097 53.3338 10.42 53.3854V53.3957Z" fill="#ACACAD"/>
<path d="M3.60922 45.9255C3.8256 46.0801 4.05228 46.2038 4.26867 46.3171C4.71174 46.5335 5.1342 46.6571 5.51544 46.7396C6.26763 46.8941 6.81374 46.8529 6.81374 46.8529C6.81374 46.8529 6.87556 46.4098 6.73131 45.7813C6.7004 45.6267 6.63857 45.4619 6.58705 45.2764C6.53553 45.1012 6.46341 44.9158 6.36037 44.72C6.26763 44.5345 6.15429 44.3284 6.01003 44.1327C5.93791 44.0296 5.86578 43.9369 5.78335 43.8338C5.74213 43.7823 5.70091 43.7308 5.64939 43.6793C5.60818 43.6278 5.56696 43.5763 5.51544 43.535C4.77356 42.7313 3.5783 41.9173 2.63034 41.2476C2.14606 40.9178 1.71329 40.6293 1.40417 40.4232C1.08475 40.2172 0.888977 40.1038 0.888977 40.1038C0.888977 40.1038 0.919889 40.3305 0.981712 40.6911C1.04354 41.0518 1.13627 41.5567 1.29083 42.1131C1.45569 42.6695 1.68238 43.2774 1.95028 43.8545C2.01211 43.9987 2.09454 44.143 2.17697 44.2769C2.2594 44.4109 2.34183 44.5448 2.42426 44.6788C2.59943 44.9364 2.7849 45.1734 2.98068 45.3794C3.18675 45.5855 3.38253 45.771 3.60922 45.9255Z" fill="#ACACAD"/>
<path d="M8.21513 46.5848C8.21513 46.5848 8.74063 46.4096 9.37948 46.0283C9.70921 45.8326 10.0595 45.5853 10.3996 45.2865C10.5644 45.1319 10.7293 44.9773 10.8838 44.7919C11.0487 44.6167 11.2033 44.4209 11.3372 44.2148C11.4712 44.0088 11.5948 43.7821 11.6979 43.5554C11.8009 43.3287 11.873 43.0917 11.9658 42.8547C12.1409 42.3807 12.2543 41.9068 12.3367 41.4843C12.4397 41.0618 12.5016 40.6909 12.5428 40.423C12.5737 40.1551 12.584 39.9902 12.584 39.9902C12.584 39.9902 12.3985 40.083 12.0997 40.2375C11.8009 40.4024 11.3887 40.6394 10.9251 40.9279C10.4717 41.2267 9.9668 41.5873 9.53404 41.9789C9.09097 42.3704 8.68912 42.8032 8.4006 43.2463C8.24605 43.4627 8.15331 43.679 8.07088 43.8954C7.98845 44.1118 7.93693 44.3179 7.89571 44.5137C7.8545 44.7094 7.84419 44.9052 7.83389 45.0804C7.83389 45.2555 7.8545 45.4307 7.8751 45.575C7.97814 46.1829 8.20483 46.5641 8.20483 46.5641L8.21513 46.5848Z" fill="#ACACAD"/>
<path d="M2.41391 32.4068C2.44482 32.6438 2.49634 32.8808 2.54786 33.1178C2.6612 33.5815 2.78485 34.0246 3.00123 34.4058C3.27944 34.921 3.60916 35.3229 3.9698 35.6423C4.33044 35.9617 4.69108 36.1987 5.04141 36.3739C5.73178 36.7242 6.26758 36.8272 6.26758 36.8272C6.26758 36.8272 6.3088 36.7242 6.36032 36.5387C6.40153 36.3533 6.47366 36.0957 6.50457 35.7762C6.53548 35.4568 6.52518 35.0859 6.44275 34.6634C6.37062 34.2513 6.23667 33.7876 5.97907 33.3033C5.89664 33.1384 5.7936 32.9736 5.69056 32.8087C5.63904 32.7263 5.58752 32.6438 5.5257 32.5511C5.47418 32.4687 5.41235 32.3759 5.36083 32.2935C5.07232 31.871 4.7529 31.4383 4.42318 31.0364C4.10375 30.6243 3.77403 30.2327 3.49582 29.903C2.93941 29.2332 2.51695 28.7593 2.51695 28.7593C2.51695 28.7593 2.45512 29.0993 2.383 29.6351C2.34178 29.903 2.33148 30.2224 2.32117 30.5727C2.32117 30.9231 2.32117 31.294 2.32117 31.6856C2.32117 31.9226 2.36239 32.1596 2.3933 32.4068H2.41391Z" fill="#ACACAD"/>
<path d="M11.3678 35.5186C11.4399 35.4568 11.5018 35.395 11.5636 35.3331C11.6254 35.2713 11.6975 35.1992 11.7594 35.1374C11.8933 35.0034 12.017 34.8592 12.1303 34.7149C12.2436 34.5706 12.3467 34.4161 12.4497 34.2718C12.5528 34.107 12.6558 33.9627 12.7485 33.8185C12.9134 33.5609 13.0576 33.3033 13.1813 33.0663C13.2431 32.9426 13.3049 32.8293 13.3565 32.7262C13.408 32.6129 13.4595 32.5202 13.511 32.4274C13.6965 32.0565 13.7892 31.8195 13.7892 31.8195C13.7892 31.8195 13.2122 31.9122 12.3982 32.1286C12.2024 32.1801 11.9757 32.242 11.7594 32.3141C11.543 32.3862 11.3163 32.4686 11.0793 32.5614C10.6156 32.7365 10.1519 32.9529 9.71917 33.2002C9.37914 33.3857 9.09063 33.6021 8.83303 33.8185C8.44149 34.1585 8.15299 34.5294 7.96751 34.9004C7.79235 35.261 7.69961 35.6216 7.6584 35.9205C7.61718 36.2296 7.60688 36.4872 7.63779 36.6726C7.6584 36.8581 7.68931 36.9612 7.68931 36.9612C7.68931 36.9612 8.23542 36.9302 8.95669 36.7345C9.67797 36.5387 10.6156 36.1678 11.3575 35.5186H11.3678Z" fill="#ACACAD"/>
<path d="M6.79341 25.3177C7.05101 25.7195 7.33952 26.0596 7.61772 26.3172C8.17414 26.8324 8.65842 27.0797 8.65842 27.0797C8.65842 27.0797 8.73055 26.9869 8.83359 26.8324C8.93663 26.6675 9.06028 26.4305 9.18392 26.1317C9.30757 25.8329 9.41061 25.4722 9.46213 25.0498C9.48274 24.8437 9.48274 24.617 9.48274 24.38C9.48274 24.143 9.46213 23.8957 9.41061 23.6278C9.35909 23.3599 9.28696 23.0817 9.20453 22.7932C9.16331 22.649 9.11179 22.5047 9.06028 22.3502C9.00876 22.2059 8.96754 22.0616 8.91602 21.9071C8.70994 21.3198 8.47295 20.7324 8.24626 20.1966C8.13292 19.9287 8.02988 19.6814 7.92684 19.4548C7.83411 19.2281 7.74137 19.0323 7.66924 18.8674C7.52499 18.5274 7.43225 18.3316 7.43225 18.3316C7.43225 18.3316 7.31891 18.5274 7.16435 18.8674C7.08192 19.0323 6.99949 19.2384 6.90675 19.4651C6.81402 19.702 6.72128 19.9596 6.63885 20.2275C6.59763 20.3615 6.54611 20.5058 6.5049 20.65C6.46368 20.7943 6.42247 20.9385 6.39156 21.1034C6.32973 21.4125 6.26791 21.7216 6.22669 22.041C6.18548 22.3605 6.15457 22.6696 6.15457 22.9684C6.15457 23.2775 6.18548 23.5763 6.237 23.8545C6.35034 24.4109 6.54612 24.8952 6.79341 25.2971V25.3177Z" fill="#ACACAD"/>
<path d="M14.5934 26.8217C14.8098 26.6877 15.0262 26.5332 15.2323 26.3786C15.428 26.224 15.6135 26.0592 15.799 25.8943C15.9741 25.7295 16.1596 25.5749 16.3142 25.4203C16.4687 25.2658 16.613 25.1112 16.7366 24.9773C16.7985 24.9051 16.8603 24.8433 16.9118 24.7815C16.9633 24.7197 17.0148 24.6681 17.0664 24.6166C17.2518 24.4106 17.3549 24.2869 17.3549 24.2869C17.3549 24.2869 17.1488 24.2663 16.7985 24.2354C16.4481 24.2148 15.9638 24.1839 15.4177 24.2045C14.8819 24.2251 14.2637 24.2766 13.6661 24.3693C13.5115 24.4002 13.3673 24.4209 13.2127 24.4518C13.0684 24.4827 12.9242 24.5239 12.7902 24.5651C12.512 24.6475 12.2441 24.7403 12.0071 24.8536C11.7701 24.967 11.5538 25.0906 11.358 25.2246C11.1622 25.3585 11.0076 25.5131 10.8634 25.6573C10.5852 25.9561 10.3894 26.2756 10.2555 26.5538C10.1215 26.832 10.07 27.0896 10.0391 27.2647C10.0082 27.4502 9.99786 27.5533 9.99786 27.5533C9.99786 27.5533 10.5337 27.6769 11.2859 27.6769C11.6671 27.6769 12.0999 27.6563 12.5429 27.5739C13.0066 27.5017 13.4806 27.3678 13.9443 27.1617C14.171 27.0587 14.3873 26.935 14.6037 26.7908L14.5934 26.8217Z" fill="#ACACAD"/>
<path d="M12.2026 16.5384C12.3366 16.9918 12.522 17.3834 12.7178 17.7131C13.0991 18.3519 13.5009 18.7126 13.5009 18.7126C13.5009 18.7126 13.8925 18.455 14.284 17.9398C14.387 17.8058 14.4798 17.6616 14.5725 17.4967C14.6652 17.3422 14.7683 17.1567 14.8507 16.9712C15.0156 16.5797 15.1392 16.116 15.1908 15.5699C15.2526 15.0341 15.2423 14.4261 15.1908 13.7976C15.1392 13.1691 15.0877 12.5508 15.0156 11.9738C14.9435 11.4071 14.8713 10.9022 14.8198 10.5416C14.758 10.1809 14.7271 9.96454 14.7271 9.96454C14.7271 9.96454 14.6859 10.0058 14.6137 10.0779C14.5519 10.1603 14.4489 10.2737 14.3252 10.4179C14.0882 10.7064 13.7585 11.1186 13.4288 11.5926C13.1094 12.0871 12.7899 12.6539 12.5323 13.2309C12.285 13.8182 12.1099 14.4261 12.048 14.9929C12.0377 15.1371 12.0274 15.2711 12.0274 15.405C12.0274 15.539 12.0377 15.6729 12.048 15.8069C12.079 16.0645 12.1305 16.3118 12.1923 16.5384H12.2026Z" fill="#ACACAD"/>
<path d="M19.3022 20.0006C19.4258 19.9594 19.5392 19.9182 19.6628 19.8667C19.7246 19.8461 19.7762 19.8255 19.838 19.7945C19.8998 19.7739 19.9616 19.743 20.0235 19.7224C20.5077 19.5266 20.9405 19.2897 21.3218 19.0733C21.7133 18.8672 22.043 18.6611 22.2697 18.5066C22.3831 18.4241 22.4758 18.3623 22.5376 18.3211C22.5994 18.2799 22.6407 18.2593 22.6407 18.2593C22.6407 18.2593 22.5891 18.2387 22.4964 18.2077C22.4037 18.1768 22.2697 18.1253 22.1152 18.0738C21.7957 17.9707 21.3321 17.8265 20.7963 17.7028C20.5284 17.641 20.2501 17.5792 19.9513 17.5277C19.8071 17.5071 19.6525 17.4762 19.5083 17.4556C19.364 17.4349 19.2094 17.4246 19.0652 17.4143C18.4676 17.3628 17.8596 17.3628 17.3238 17.4556C16.7983 17.5483 16.3656 17.7338 16.0049 17.9398C15.8195 18.0429 15.6649 18.1562 15.5206 18.2799C15.3867 18.4035 15.2733 18.5272 15.1703 18.6508C14.7685 19.1351 14.6242 19.5473 14.6242 19.5473C14.6242 19.5473 15.1085 19.8048 15.8401 20.0109C16.2007 20.114 16.6335 20.2067 17.0971 20.2479C17.5608 20.2891 18.0348 20.2788 18.55 20.2067C18.8076 20.1655 19.0549 20.1037 19.3022 20.0212V20.0006Z" fill="#ACACAD"/>
<path d="M20.7036 11.3038C20.7963 11.5099 20.8684 11.6232 20.8684 11.6232C20.8684 11.6232 20.8993 11.6232 20.9508 11.5923C21.0024 11.5717 21.0745 11.5408 21.1569 11.4996C21.3321 11.4171 21.5794 11.2832 21.837 11.0874C22.3522 10.6855 22.991 10.0879 23.3929 9.05753C23.5268 8.7175 23.6608 8.34656 23.7638 7.95501C23.8978 7.46042 24.0111 6.93492 24.1039 6.43002C24.2069 5.93544 24.2996 5.45115 24.3615 5.01838C24.5057 4.16316 24.5778 3.55523 24.5778 3.54492C24.5778 3.54492 24.2687 3.73039 23.8153 4.04981C23.5887 4.20437 23.3311 4.40015 23.0425 4.61653C22.7746 4.84322 22.4861 5.10082 22.1976 5.37902C22.0225 5.54389 21.8576 5.71905 21.6927 5.90452C21.6515 5.94574 21.6103 5.99726 21.5691 6.03847C21.5279 6.07969 21.497 6.13121 21.4557 6.18273C21.3836 6.27546 21.3115 6.3785 21.2394 6.47124C20.9508 6.86279 20.7139 7.26464 20.549 7.6665C20.4356 7.92409 20.3635 8.2023 20.3223 8.4496C20.2811 8.70719 20.2502 8.95449 20.2502 9.19148C20.2399 9.66546 20.312 10.0879 20.4047 10.4486C20.4975 10.8092 20.6108 11.0977 20.7036 11.3038Z" fill="#ACACAD"/>
<path d="M27.5349 14.2409C27.844 14.179 28.1325 14.1069 28.4004 14.0348C28.6683 13.973 28.9156 13.9111 29.1217 13.8493C29.5235 13.7257 29.7811 13.6329 29.7811 13.6329C29.7811 13.6329 29.3174 13.2826 28.6065 12.8601C28.2561 12.6438 27.8337 12.4171 27.3803 12.2007C26.9372 11.9946 26.4633 11.8091 25.979 11.6649C25.608 11.5515 25.2474 11.4691 24.8971 11.4382C23.8461 11.3455 23.0114 11.6443 22.4859 12.0152C22.218 12.1904 22.0223 12.3759 21.8986 12.4995C21.8368 12.5613 21.7853 12.6232 21.7544 12.6644C21.7234 12.7056 21.7131 12.7262 21.7131 12.7262C21.7131 12.7262 21.8059 12.8189 21.981 12.9632C22.1562 13.1074 22.4138 13.2929 22.7435 13.4887C23.063 13.6845 23.4545 13.8905 23.877 14.0554C24.0934 14.1378 24.32 14.21 24.557 14.2615C24.794 14.3233 25.031 14.3645 25.2886 14.3954C26.0408 14.4882 26.8136 14.3645 27.5349 14.2512V14.2409Z" fill="#ACACAD"/>
<path d="M38.5702 74.4466C38.3641 74.426 38.1168 74.3951 37.8283 74.3539C37.6841 74.3332 37.5295 74.3229 37.375 74.292C37.2204 74.2611 37.0452 74.2302 36.8804 74.1993C36.53 74.1375 36.1591 74.0756 35.7572 74.0035C35.3657 73.9108 34.9432 73.818 34.5105 73.7253C34.2941 73.6738 34.0674 73.6326 33.851 73.5707C33.6346 73.5089 33.4079 73.4471 33.1916 73.3853C32.7485 73.2616 32.2848 73.1483 31.8417 72.9937C30.0386 72.4579 28.3075 71.7057 27.0401 71.1081C26.731 70.9535 26.4322 70.8093 26.1849 70.6856C26.0509 70.6238 25.9376 70.562 25.8243 70.5105C25.7109 70.459 25.6182 70.3971 25.5254 70.3456C25.1648 70.1498 24.969 70.0365 24.969 70.0365C24.969 70.0365 24.7629 69.9232 24.4023 69.7274C24.052 69.5213 23.5574 69.2019 22.9598 68.8412C21.7954 68.0684 20.2601 66.9968 18.8691 65.7707C17.4678 64.5548 16.1798 63.2153 15.273 62.1746C15.1494 62.0509 15.0566 61.917 14.9536 61.7934C14.8506 61.6697 14.7578 61.5564 14.6754 61.443C14.5002 61.2266 14.3457 61.0412 14.2117 60.8763C14.0778 60.7217 13.9953 60.5878 13.9335 60.5054C13.8717 60.4126 13.8305 60.3714 13.8305 60.3714C13.8305 60.3714 13.6965 60.1859 13.4595 59.8665C13.3462 59.7017 13.1916 59.5162 13.0371 59.2792C12.8825 59.0422 12.7073 58.7846 12.5116 58.4961C12.4188 58.3518 12.3158 58.2076 12.2128 58.053C12.1097 57.8985 12.017 57.7336 11.9139 57.5584C11.7079 57.2184 11.5018 56.8578 11.2751 56.4971C11.0793 56.1159 10.8629 55.7243 10.6569 55.3328C10.6053 55.2297 10.5538 55.137 10.492 55.034C10.4405 54.9309 10.3993 54.8279 10.3477 54.7248C10.255 54.5188 10.152 54.3127 10.0592 54.1066C9.29674 52.4477 8.65789 50.7269 8.29726 49.408C8.24574 49.2432 8.20452 49.0886 8.153 48.934C8.11178 48.7898 8.06027 48.6455 8.03966 48.5116C7.97783 48.2437 7.91601 48.0067 7.87479 47.8109C7.78206 47.4194 7.73054 47.203 7.73054 47.203C7.73054 47.203 7.72024 47.1515 7.68932 47.0484C7.66872 46.9454 7.6378 46.7908 7.60689 46.595C7.56568 46.3993 7.52446 46.1623 7.48324 45.8944C7.43173 45.6265 7.3596 45.3174 7.32869 44.9773C7.28747 44.6373 7.23595 44.2767 7.18443 43.8851C7.17413 43.7924 7.15352 43.6893 7.14321 43.5966C7.13291 43.4936 7.12261 43.4008 7.1123 43.2875C7.102 43.0814 7.08139 42.8753 7.06078 42.6589C6.96805 41.814 6.96805 40.897 6.94744 39.9902C6.97835 39.0835 6.97835 38.1767 7.06078 37.3215C7.07109 37.1154 7.0917 36.899 7.1123 36.693C7.1123 36.5899 7.12261 36.4869 7.14321 36.3941C7.15352 36.2911 7.17413 36.1984 7.18443 36.0953C7.23595 35.7141 7.28747 35.3431 7.32869 35.0031C7.3699 34.6631 7.43173 34.3643 7.48324 34.0861C7.53476 33.8182 7.57598 33.5812 7.60689 33.3854C7.64811 33.1896 7.66872 33.0351 7.68932 32.932C7.72024 32.829 7.73054 32.7775 7.73054 32.7775C7.73054 32.7775 7.78206 32.5611 7.87479 32.1695C7.91601 31.9738 7.97783 31.7368 8.03966 31.4689C8.07057 31.3349 8.11178 31.1907 8.153 31.0464C8.19422 30.8918 8.24574 30.7373 8.29726 30.5724C8.65789 29.2535 9.29674 27.5431 10.0592 25.8738C10.1623 25.6677 10.255 25.4617 10.3477 25.2556C10.3993 25.1525 10.4405 25.0495 10.492 24.9465C10.5435 24.8434 10.595 24.7507 10.6569 24.6477C10.8732 24.2458 11.0793 23.8543 11.2751 23.4833C11.4915 23.1124 11.7079 22.7517 11.9139 22.422C12.017 22.2571 12.1097 22.082 12.2128 21.9274C12.3158 21.7729 12.4188 21.6286 12.5116 21.4843C12.697 21.1958 12.8825 20.9382 13.0371 20.7012C13.1916 20.4643 13.3462 20.2788 13.4595 20.1139C13.6965 19.7842 13.8305 19.609 13.8305 19.609C13.8305 19.609 13.8717 19.5575 13.9335 19.4751C13.9953 19.3926 14.0881 19.2587 14.2117 19.1041C14.3354 18.9496 14.5002 18.7538 14.6754 18.5374C14.7681 18.4241 14.8609 18.3107 14.9536 18.1871C15.0566 18.0634 15.1597 17.9398 15.273 17.8058C16.1798 16.7651 17.4678 15.4256 18.8691 14.2098C20.2704 12.9836 21.7954 11.912 22.9598 11.1392C23.5574 10.7786 24.052 10.4591 24.4023 10.2531C24.7629 10.0573 24.969 9.94394 24.969 9.94394C24.969 9.94394 25.1751 9.83059 25.5254 9.63482C25.6182 9.5833 25.7109 9.53178 25.8243 9.46996C25.9376 9.41844 26.0509 9.35661 26.1849 9.29479C26.2673 9.25357 26.3601 9.21236 26.4528 9.16084H26.4734C26.7001 9.18145 27.0195 9.19175 27.4008 9.16084C28.1632 9.12993 29.1524 8.96506 30.018 8.49108C30.4713 8.2644 30.8938 7.94497 31.2647 7.60494C31.4399 7.42978 31.6357 7.26491 31.8108 7.08975C31.986 6.92488 32.1406 6.74972 32.2848 6.58485C32.563 6.25513 32.8206 5.96662 32.9855 5.75024C33.1503 5.53385 33.2431 5.3999 33.2431 5.3999C33.2431 5.3999 33.037 5.3999 32.6867 5.3896C32.3363 5.3896 31.8521 5.3896 31.3059 5.44112C31.172 5.45142 31.0277 5.46172 30.8835 5.48233C30.7392 5.50294 30.595 5.52355 30.4507 5.54416C30.1622 5.58537 29.8634 5.6472 29.5749 5.70902C28.9876 5.85327 28.4002 6.02844 27.9469 6.28604C27.4832 6.53333 27.1225 6.84245 26.8546 7.15157C26.597 7.47099 26.4322 7.79041 26.3085 8.08923C26.1952 8.37774 26.1437 8.63534 26.1231 8.8105C26.1231 8.84142 26.1231 8.88263 26.1231 8.91354C26.0922 8.93415 26.0509 8.94446 26.02 8.96506C25.8964 9.02689 25.7727 9.08871 25.6594 9.14023C25.546 9.20205 25.4533 9.25357 25.3606 9.30509C24.9999 9.50087 24.7939 9.62452 24.7939 9.62452C24.7939 9.62452 24.5878 9.73786 24.2271 9.93363C23.8768 10.1397 23.3719 10.4591 22.7743 10.8301C21.5996 11.6029 20.054 12.6951 18.6424 13.9316C17.2308 15.168 15.9325 16.5075 15.0051 17.5689C14.8815 17.6925 14.7887 17.8264 14.6857 17.9501C14.5827 18.0737 14.4899 18.1871 14.3972 18.3004C14.2117 18.5168 14.0572 18.7126 13.9335 18.8671C13.7996 19.0217 13.7171 19.1557 13.645 19.2381C13.5832 19.3205 13.542 19.372 13.542 19.372C13.542 19.372 13.408 19.5575 13.1607 19.8872C13.0474 20.0521 12.8928 20.2479 12.7279 20.4849C12.5734 20.7219 12.3982 20.9898 12.2024 21.2783C12.0994 21.4225 12.0067 21.5771 11.9036 21.7316C11.8006 21.8862 11.7079 22.0614 11.6048 22.2262C11.3987 22.5663 11.1824 22.9269 10.966 23.2978C10.7599 23.6791 10.5538 24.0706 10.3374 24.4828C10.2859 24.5858 10.2344 24.6889 10.1726 24.7816C10.1211 24.8846 10.0798 24.9877 10.0283 25.0907C9.92528 25.2968 9.83254 25.5132 9.7295 25.7193C8.95671 27.3988 8.30756 29.1299 7.94692 30.4591C7.8954 30.6239 7.85419 30.7785 7.80267 30.9331C7.76145 31.0876 7.70993 31.2216 7.67902 31.3658C7.6172 31.6337 7.55537 31.881 7.51416 32.0768C7.42142 32.4683 7.3596 32.695 7.3596 32.695C7.3596 32.695 7.34929 32.7569 7.31838 32.8599C7.28747 32.9629 7.26686 33.1175 7.22565 33.3236C7.19473 33.5193 7.14322 33.7666 7.0917 34.0345C7.04018 34.3127 6.97835 34.6219 6.93714 34.9619C6.89592 35.3019 6.8444 35.6729 6.79288 36.0644C6.78258 36.1675 6.76197 36.2602 6.75167 36.3632C6.74136 36.4663 6.73106 36.5693 6.72075 36.6723C6.71045 36.8784 6.68984 37.0845 6.66923 37.3112C6.5765 38.1664 6.5765 39.0835 6.54559 40.0005C6.5765 40.9176 6.5765 41.8346 6.66923 42.6898C6.68984 42.9062 6.70015 43.1123 6.72075 43.3184C6.73106 43.4214 6.73106 43.5245 6.75167 43.6172C6.76197 43.7202 6.78258 43.8233 6.79288 43.916C6.8444 44.3076 6.89592 44.6785 6.93714 45.0185C6.97835 45.3586 7.05048 45.6677 7.0917 45.9459C7.14322 46.2241 7.18443 46.4611 7.22565 46.6569C7.26686 46.8526 7.28747 47.0072 7.31838 47.1205C7.33899 47.2236 7.3596 47.2854 7.3596 47.2854C7.3596 47.2854 7.41112 47.5121 7.51416 47.9036C7.55537 48.0994 7.6172 48.3364 7.67902 48.6146C7.70993 48.7486 7.75115 48.8928 7.80267 49.0474C7.84388 49.2019 7.8954 49.3565 7.94692 49.5214C8.30756 50.8506 8.9464 52.5816 9.7295 54.2612C9.82224 54.4673 9.92528 54.6836 10.0283 54.8897C10.0798 54.9927 10.1211 55.0958 10.1726 55.1988C10.2241 55.3019 10.2859 55.4049 10.3374 55.4976C10.5538 55.8995 10.7599 56.291 10.966 56.6826C11.1824 57.0535 11.3987 57.4142 11.6048 57.7542C11.7079 57.9191 11.8006 58.0942 11.9036 58.2488C12.0067 58.4034 12.1097 58.5579 12.2024 58.7022C12.3982 58.9907 12.5734 59.2586 12.7279 59.4956C12.8825 59.7326 13.0371 59.9283 13.1607 60.0932C13.408 60.4229 13.542 60.6084 13.542 60.6084C13.542 60.6084 13.5832 60.6599 13.645 60.7423C13.7068 60.8248 13.7996 60.9587 13.9335 61.1133C14.0572 61.2679 14.222 61.4636 14.3972 61.68C14.4899 61.7934 14.5827 61.9067 14.6857 62.0303C14.7887 62.154 14.8815 62.2879 15.0051 62.4116C15.9222 63.4729 17.2205 64.8124 18.6424 66.0489C20.054 67.2854 21.5996 68.3673 22.7743 69.1504C23.3822 69.5213 23.8768 69.8407 24.2271 70.0468C24.5878 70.2426 24.7939 70.3559 24.7939 70.3559C24.7939 70.3559 24.9999 70.4693 25.3606 70.6753C25.4533 70.7269 25.5564 70.7784 25.6594 70.8402C25.7727 70.8917 25.8964 70.9536 26.02 71.0154C26.2776 71.139 26.5661 71.2833 26.8856 71.4481C28.1735 72.0458 29.9149 72.798 31.7387 73.3441C32.1921 73.4986 32.6455 73.612 33.0988 73.7356C33.3255 73.7974 33.5522 73.8593 33.7686 73.9211C33.985 73.9829 34.2117 74.0241 34.428 74.0756C34.8608 74.1684 35.2833 74.2611 35.6851 74.3539C36.087 74.426 36.4682 74.4878 36.8185 74.5496C36.9937 74.5805 37.1586 74.6115 37.3234 74.6321C37.4883 74.663 37.6429 74.6733 37.7871 74.6939C38.0756 74.7248 38.3229 74.7557 38.5393 74.7866C38.9515 74.8381 39.1885 74.869 39.1885 74.869L39.2297 74.5187C39.2297 74.5187 38.9927 74.4878 38.5805 74.4363L38.5702 74.4466Z" fill="#ACACAD"/>
<path d="M90.6578 18.9221V14.7619C90.6578 14.6092 90.5664 14.4551 90.4338 14.3783L86.5599 12.1424C86.4292 12.0669 86.2462 12.067 86.1162 12.1423L82.2183 14.3783C82.0859 14.4549 81.9722 14.609 81.9722 14.7619V18.9221C81.9722 19.0749 82.0856 19.2291 82.2181 19.3057L86.1028 21.5415C86.1682 21.5793 86.2511 21.5994 86.3307 21.5994C86.4104 21.5994 86.4901 21.5794 86.5553 21.5417L90.4326 19.3055C90.5649 19.2289 90.6578 19.0748 90.6578 18.9221Z" fill="#ACACAD"/>
<path d="M80.4592 18.9538V14.7822C80.4592 14.6256 80.3843 14.4703 80.2466 14.3957L77.6455 12.9839C77.589 12.9533 77.527 12.9372 77.4648 12.9372C77.2618 12.9372 77.1034 13.0999 77.1034 13.3077V20.4284C77.1034 20.6361 77.2662 20.7989 77.4693 20.7989C77.5315 20.7989 77.596 20.7828 77.6523 20.7522L80.2457 19.3402C80.3834 19.2657 80.4592 19.1104 80.4592 18.9538Z" fill="#ACACAD" fill-opacity="0.8"/>
<path d="M87.3241 10.82L91.2135 13.0662C91.2793 13.1041 91.3561 13.1242 91.4365 13.1242C91.5122 13.1242 91.5852 13.1062 91.6483 13.0721L94.2418 11.669C94.3632 11.6034 94.4367 11.4849 94.4385 11.3522C94.4403 11.2194 94.3699 11.099 94.2507 11.0304L87.6512 7.22012C87.5925 7.18617 87.5288 7.16827 87.4633 7.16827C87.261 7.16827 87.1047 7.3306 87.1047 7.53787V10.4364C87.1048 10.5893 87.1916 10.7434 87.3241 10.82Z" fill="#5F5F60" fill-opacity="0.5"/>
<path d="M78.4324 11.6688L81.0263 13.0721C81.0893 13.1062 81.1626 13.1241 81.2383 13.1241C81.3189 13.1241 81.3963 13.104 81.4621 13.066L85.3287 10.8198C85.4609 10.7432 85.5257 10.5891 85.5257 10.4363V7.53787C85.5257 7.3306 85.3914 7.16827 85.189 7.16827C85.1234 7.16827 85.0697 7.18624 85.0113 7.22006L78.4179 11.0302C78.2984 11.099 78.2311 11.2193 78.2328 11.352C78.2345 11.4847 78.311 11.6032 78.4324 11.6688Z" fill="#ACACAD" fill-opacity="0.8"/>
<path d="M95.1827 12.9372C95.1206 12.9372 95.067 12.9533 95.0106 12.9839L92.4011 14.3957C92.2632 14.4701 92.1709 14.6255 92.1709 14.7822V18.9538C92.1709 19.1105 92.2677 19.2658 92.4055 19.3402L95.0175 20.7476C95.0739 20.7782 95.1405 20.7899 95.2026 20.7899C95.3109 20.7899 95.3927 20.7466 95.4612 20.6633C95.5154 20.5973 95.5266 20.5168 95.5266 20.4283V13.3077C95.5267 13.0999 95.3858 12.9372 95.1827 12.9372Z" fill="#ACACAD" fill-opacity="0.7"/>
<path d="M85.328 22.8636L81.4966 20.6445C81.3687 20.5706 81.1969 20.5679 81.0665 20.6384L78.4757 22.0417C78.3544 22.1073 78.2825 22.2258 78.2807 22.3584C78.279 22.4911 78.35 22.6114 78.4692 22.68L85.0223 26.4626C85.081 26.4966 85.1471 26.5139 85.2127 26.5139C85.3221 26.5139 85.4001 26.4658 85.4683 26.3808C85.5214 26.3146 85.5255 26.2338 85.5255 26.1457V23.2471C85.5255 23.0945 85.4606 22.9404 85.328 22.8636Z" fill="#5F5F60" fill-opacity="0.6"/>
<path d="M94.1952 22.0424L91.6016 20.6393C91.4717 20.569 91.2936 20.5714 91.1656 20.6453L87.324 22.8645C87.1916 22.941 87.1047 23.0952 87.1047 23.248V26.1465C87.1047 26.3538 87.261 26.5161 87.4633 26.5161C87.5288 26.5161 87.5934 26.4982 87.6521 26.4644L94.2043 22.6811C94.3238 22.6123 94.3938 22.492 94.3921 22.3592C94.3903 22.2263 94.3165 22.1079 94.1952 22.0424Z" fill="#ACACAD" fill-opacity="0.8"/>
<path d="M51.5 47L53.4091 35.3636H55.2273L53.3182 47H51.5ZM46.2898 44.1136L46.5909 42.2955H55.6818L55.3807 44.1136H46.2898ZM47.4091 47L49.3182 35.3636H51.1364L49.2273 47H47.4091ZM46.9545 40.0682L47.2614 38.25H56.3523L56.0455 40.0682H46.9545ZM62.5213 35.3636V47H60.0611V37.6989H59.9929L57.3281 39.3693V37.1875L60.2088 35.3636H62.5213ZM71.6776 47L68.348 35.3636H71.0355L72.9616 43.4489H73.0582L75.1832 35.3636H77.4844L79.6037 43.4659H79.706L81.6321 35.3636H84.3196L80.9901 47H78.5923L76.3764 39.392H76.2855L74.0753 47H71.6776ZM87.142 47.1648C86.5852 47.1648 86.089 47.0682 85.6534 46.875C85.2178 46.678 84.8731 46.3883 84.6193 46.0057C84.3693 45.6193 84.2443 45.1383 84.2443 44.5625C84.2443 44.0777 84.3333 43.6705 84.5114 43.3409C84.6894 43.0114 84.9318 42.7462 85.2386 42.5455C85.5455 42.3447 85.8939 42.1932 86.2841 42.0909C86.678 41.9886 87.0909 41.9167 87.5227 41.875C88.0303 41.822 88.4394 41.7727 88.75 41.7273C89.0606 41.678 89.286 41.6061 89.4261 41.5114C89.5663 41.4167 89.6364 41.2765 89.6364 41.0909V41.0568C89.6364 40.697 89.5227 40.4186 89.2955 40.2216C89.072 40.0246 88.7538 39.9261 88.3409 39.9261C87.9053 39.9261 87.5587 40.0227 87.3011 40.2159C87.0436 40.4053 86.8731 40.6439 86.7898 40.9318L84.5511 40.75C84.6648 40.2197 84.8883 39.7614 85.2216 39.375C85.5549 38.9848 85.9848 38.6856 86.5114 38.4773C87.0417 38.2652 87.6553 38.1591 88.3523 38.1591C88.8371 38.1591 89.3011 38.2159 89.7443 38.3295C90.1913 38.4432 90.5871 38.6193 90.9318 38.858C91.2803 39.0966 91.5549 39.4034 91.7557 39.7784C91.9564 40.1496 92.0568 40.5947 92.0568 41.1136V47H89.7614V45.7898H89.6932C89.553 46.0625 89.3655 46.303 89.1307 46.5114C88.8958 46.7159 88.6136 46.8769 88.2841 46.9943C87.9545 47.108 87.5739 47.1648 87.142 47.1648ZM87.8352 45.4943C88.1913 45.4943 88.5057 45.4242 88.7784 45.2841C89.0511 45.1402 89.2652 44.947 89.4205 44.7045C89.5758 44.4621 89.6534 44.1875 89.6534 43.8807V42.9545C89.5777 43.0038 89.4735 43.0492 89.3409 43.0909C89.2121 43.1288 89.0663 43.1648 88.9034 43.1989C88.7405 43.2292 88.5777 43.2576 88.4148 43.2841C88.2519 43.3068 88.1042 43.3277 87.9716 43.3466C87.6875 43.3883 87.4394 43.4545 87.2273 43.5455C87.0152 43.6364 86.8504 43.7595 86.733 43.9148C86.6155 44.0663 86.5568 44.2557 86.5568 44.483C86.5568 44.8125 86.6761 45.0644 86.9148 45.2386C87.1572 45.4091 87.464 45.4943 87.8352 45.4943ZM96.3551 35.3636V47H93.9347V35.3636H96.3551ZM100.714 35.3636V47H98.294V35.3636H100.714ZM106.631 47.1705C105.733 47.1705 104.96 46.9886 104.312 46.625C103.669 46.2576 103.172 45.7386 102.824 45.0682C102.475 44.3939 102.301 43.5966 102.301 42.6761C102.301 41.7784 102.475 40.9905 102.824 40.3125C103.172 39.6345 103.663 39.1061 104.295 38.7273C104.932 38.3485 105.678 38.1591 106.534 38.1591C107.11 38.1591 107.646 38.2519 108.142 38.4375C108.642 38.6193 109.078 38.8939 109.449 39.2614C109.824 39.6288 110.116 40.0909 110.324 40.6477C110.532 41.2008 110.636 41.8485 110.636 42.5909V43.2557H103.267V41.7557H108.358C108.358 41.4072 108.282 41.0985 108.131 40.8295C107.979 40.5606 107.769 40.3504 107.5 40.1989C107.235 40.0436 106.926 39.9659 106.574 39.9659C106.206 39.9659 105.881 40.0511 105.597 40.2216C105.316 40.3883 105.097 40.6136 104.938 40.8977C104.778 41.178 104.697 41.4905 104.693 41.8352V43.2614C104.693 43.6932 104.773 44.0663 104.932 44.3807C105.095 44.6951 105.324 44.9375 105.619 45.108C105.915 45.2784 106.265 45.3636 106.67 45.3636C106.939 45.3636 107.186 45.3258 107.409 45.25C107.633 45.1742 107.824 45.0606 107.983 44.9091C108.142 44.7576 108.263 44.572 108.347 44.3523L110.585 44.5C110.472 45.0379 110.239 45.5076 109.886 45.9091C109.538 46.3068 109.087 46.6174 108.534 46.8409C107.985 47.0606 107.35 47.1705 106.631 47.1705ZM116.858 38.2727V40.0909H111.602V38.2727H116.858ZM112.795 36.1818H115.216V44.3182C115.216 44.5417 115.25 44.7159 115.318 44.8409C115.386 44.9621 115.481 45.0473 115.602 45.0966C115.727 45.1458 115.871 45.1705 116.034 45.1705C116.148 45.1705 116.261 45.161 116.375 45.142C116.489 45.1193 116.576 45.1023 116.636 45.0909L117.017 46.892C116.896 46.9299 116.725 46.9735 116.506 47.0227C116.286 47.0758 116.019 47.108 115.705 47.1193C115.121 47.142 114.61 47.0644 114.17 46.8864C113.735 46.7083 113.396 46.4318 113.153 46.0568C112.911 45.6818 112.792 45.2083 112.795 44.6364V36.1818Z" fill="#ACACAD"/>
<path d="M51.9888 64V57.4545H52.9945V64H51.9888ZM52.5002 56.3636C52.3042 56.3636 52.1351 56.2969 51.9931 56.1634C51.8539 56.0298 51.7843 55.8693 51.7843 55.6818C51.7843 55.4943 51.8539 55.3338 51.9931 55.2003C52.1351 55.0668 52.3042 55 52.5002 55C52.6962 55 52.8638 55.0668 53.003 55.2003C53.1451 55.3338 53.2161 55.4943 53.2161 55.6818C53.2161 55.8693 53.1451 56.0298 53.003 56.1634C52.8638 56.2969 52.6962 56.3636 52.5002 56.3636ZM55.8422 60.0625V64H54.8365V57.4545H55.8081V58.4773H55.8933C56.0467 58.1449 56.2797 57.8778 56.5922 57.6761C56.9047 57.4716 57.3081 57.3693 57.8024 57.3693C58.2456 57.3693 58.6333 57.4602 58.9657 57.642C59.2981 57.821 59.5566 58.0938 59.7413 58.4602C59.926 58.8239 60.0183 59.2841 60.0183 59.8409V64H59.0126V59.9091C59.0126 59.3949 58.8791 58.9943 58.612 58.7074C58.345 58.4176 57.9785 58.2727 57.5126 58.2727C57.1916 58.2727 56.9047 58.3423 56.6518 58.4815C56.4018 58.6207 56.2044 58.8239 56.0595 59.0909C55.9146 59.358 55.8422 59.6818 55.8422 60.0625ZM64.8901 56.2102V55.2727H71.4355V56.2102H68.6912V64H67.6344V56.2102H64.8901ZM80.0669 59.6364C80.0669 60.5568 79.9007 61.3523 79.5684 62.0227C79.236 62.6932 78.78 63.2102 78.2005 63.5739C77.6209 63.9375 76.959 64.1193 76.2147 64.1193C75.4703 64.1193 74.8084 63.9375 74.2289 63.5739C73.6493 63.2102 73.1934 62.6932 72.861 62.0227C72.5286 61.3523 72.3624 60.5568 72.3624 59.6364C72.3624 58.7159 72.5286 57.9205 72.861 57.25C73.1934 56.5795 73.6493 56.0625 74.2289 55.6989C74.8084 55.3352 75.4703 55.1534 76.2147 55.1534C76.959 55.1534 77.6209 55.3352 78.2005 55.6989C78.78 56.0625 79.236 56.5795 79.5684 57.25C79.9007 57.9205 80.0669 58.7159 80.0669 59.6364ZM79.0442 59.6364C79.0442 58.8807 78.9178 58.2429 78.665 57.723C78.415 57.2031 78.0755 56.8097 77.6465 56.5426C77.2203 56.2756 76.7431 56.142 76.2147 56.142C75.6863 56.142 75.2076 56.2756 74.7786 56.5426C74.3525 56.8097 74.013 57.2031 73.7601 57.723C73.5101 58.2429 73.3851 58.8807 73.3851 59.6364C73.3851 60.392 73.5101 61.0298 73.7601 61.5497C74.013 62.0696 74.3525 62.4631 74.7786 62.7301C75.2076 62.9972 75.6863 63.1307 76.2147 63.1307C76.7431 63.1307 77.2203 62.9972 77.6465 62.7301C78.0755 62.4631 78.415 62.0696 78.665 61.5497C78.9178 61.0298 79.0442 60.392 79.0442 59.6364ZM88.7644 55.2727V64H87.7417L82.986 57.1477H82.9007V64H81.8439V55.2727H82.8667L87.6394 62.142H87.7246V55.2727H88.7644ZM94.612 64H93.5041L96.7086 55.2727H97.7995L101.004 64H99.8961L97.2882 56.6534H97.22L94.612 64ZM95.0211 60.5909H99.487V61.5284H95.0211V60.5909ZM102.227 66.4545V57.4545H103.199V58.4943H103.318C103.392 58.3807 103.494 58.2358 103.625 58.0597C103.758 57.8807 103.949 57.7216 104.196 57.5824C104.446 57.4403 104.784 57.3693 105.21 57.3693C105.761 57.3693 106.247 57.5071 106.667 57.7827C107.088 58.0582 107.416 58.4489 107.652 58.9545C107.888 59.4602 108.006 60.0568 108.006 60.7443C108.006 61.4375 107.888 62.0384 107.652 62.5469C107.416 63.0526 107.089 63.4446 106.672 63.723C106.254 63.9986 105.773 64.1364 105.227 64.1364C104.807 64.1364 104.47 64.0668 104.217 63.9276C103.964 63.7855 103.77 63.625 103.633 63.446C103.497 63.2642 103.392 63.1136 103.318 62.9943H103.233V66.4545H102.227ZM103.216 60.7273C103.216 61.2216 103.288 61.6577 103.433 62.0355C103.578 62.4105 103.79 62.7045 104.068 62.9176C104.346 63.1278 104.687 63.233 105.091 63.233C105.511 63.233 105.862 63.1222 106.143 62.9006C106.427 62.6761 106.64 62.375 106.782 61.9972C106.927 61.6165 107 61.1932 107 60.7273C107 60.267 106.929 59.8523 106.787 59.483C106.648 59.1108 106.436 58.8168 106.152 58.6009C105.871 58.3821 105.517 58.2727 105.091 58.2727C104.682 58.2727 104.338 58.3764 104.059 58.5838C103.781 58.7884 103.571 59.0753 103.429 59.4446C103.287 59.8111 103.216 60.2386 103.216 60.7273ZM109.54 66.4545V57.4545H110.511V58.4943H110.631C110.704 58.3807 110.807 58.2358 110.937 58.0597C111.071 57.8807 111.261 57.7216 111.508 57.5824C111.758 57.4403 112.096 57.3693 112.523 57.3693C113.074 57.3693 113.559 57.5071 113.98 57.7827C114.4 58.0582 114.729 58.4489 114.964 58.9545C115.2 59.4602 115.318 60.0568 115.318 60.7443C115.318 61.4375 115.2 62.0384 114.964 62.5469C114.729 63.0526 114.402 63.4446 113.984 63.723C113.567 63.9986 113.085 64.1364 112.54 64.1364C112.119 64.1364 111.782 64.0668 111.53 63.9276C111.277 63.7855 111.082 63.625 110.946 63.446C110.809 63.2642 110.704 63.1136 110.631 62.9943H110.545V66.4545H109.54ZM110.528 60.7273C110.528 61.2216 110.601 61.6577 110.746 62.0355C110.89 62.4105 111.102 62.7045 111.381 62.9176C111.659 63.1278 112 63.233 112.403 63.233C112.824 63.233 113.175 63.1222 113.456 62.9006C113.74 62.6761 113.953 62.375 114.095 61.9972C114.24 61.6165 114.312 61.1932 114.312 60.7273C114.312 60.267 114.241 59.8523 114.099 59.483C113.96 59.1108 113.748 58.8168 113.464 58.6009C113.183 58.3821 112.829 58.2727 112.403 58.2727C111.994 58.2727 111.65 58.3764 111.372 58.5838C111.094 58.7884 110.883 59.0753 110.741 59.4446C110.599 59.8111 110.528 60.2386 110.528 60.7273Z" fill="#ACACAD"/>
</svg>
