<svg xmlns="http://www.w3.org/2000/svg" width="28" height="28" fill="none" viewBox="0 0 20 20"><rect width="16.667" height="1.667" x="1.667" y="16.667" fill="white" rx="0.833"></rect><path fill="white" d="M11.733 1.667H8.267c-.56 0-.84 0-1.054.109a1 1 0 0 0-.437.437c-.11.214-.11.494-.11 1.054v5.066c-.764 0-1.147 0-1.352.1a1 1 0 0 0-.51 1.23c.075.216.345.486.886 1.027L8.87 13.87c.396.396.594.594.822.668a1 1 0 0 0 .618 0c.228-.074.426-.272.822-.668l3.179-3.179c.54-.54.81-.81.886-1.026a1 1 0 0 0-.51-1.232c-.206-.099-.588-.099-1.353-.099V3.267c0-.56 0-.84-.109-1.054a1 1 0 0 0-.437-.437c-.214-.11-.494-.11-1.054-.11"></path></svg>