<svg width="27" height="17" viewBox="0 0 27 17" fill="none" xmlns="http://www.w3.org/2000/svg">
<path fill-rule="evenodd" clip-rule="evenodd" d="M2.5 5.6C2.5 3.64 2.5 2.66 2.881 1.911C3.2166 1.2522 3.7522 0.716597 4.411 0.381C5.16 2.98023e-08 6.14 0 8.1 0H18.9C20.86 0 21.84 2.98023e-08 22.589 0.381C23.2478 0.716597 23.7834 1.2522 24.119 1.911C24.5 2.66 24.5 3.64 24.5 5.6V15H25.5C25.7652 15 26.0196 15.1054 26.2071 15.2929C26.3946 15.4804 26.5 15.7348 26.5 16C26.5 16.2652 26.3946 16.5196 26.2071 16.7071C26.0196 16.8946 25.7652 17 25.5 17H1.5C1.23478 17 0.98043 16.8946 0.792893 16.7071C0.605357 16.5196 0.5 16.2652 0.5 16C0.5 15.7348 0.605357 15.4804 0.792893 15.2929C0.98043 15.1054 1.23478 15 1.5 15H2.5V5.6ZM4.5 15H22.5V4.4C22.5 3.56 22.5 3.14 22.337 2.819C22.1931 2.53651 21.9635 2.30685 21.681 2.163C21.361 2 20.941 2 20.1 2H6.9C6.06 2 5.64 2 5.319 2.163C5.03651 2.30685 4.80685 2.53651 4.663 2.819C4.5 3.139 4.5 3.559 4.5 4.4V15Z" fill="black"/>
</svg>
